<svg xmlns="http://www.w3.org/2000/svg" version="1.1" xmlns:xlink="http://www.w3.org/1999/xlink" xmlns:svgjs="http://svgjs.dev/svgjs" viewBox="0 0 800 800"><defs><linearGradient x1="50%" y1="0%" x2="50%" y2="100%" id="uundulate-grad"><stop stop-color="hsl(37, 99%, 67%)" stop-opacity="1" offset="45%"></stop><stop stop-color="hsl(316, 73%, 52%)" stop-opacity="1" offset="100%"></stop></linearGradient></defs><g stroke-width="2" stroke="url(#uundulate-grad)" fill="none"><path d="M1914.0658166984558 -528.1607148110115C2122.587672989116 -62.1758253892624 2089.270452416437 956.0160022505761 1850.7314086868982 1407.3721879142909C1612.19236495736 1858.7283735780047 1411.2209075969986 1630.6467836828751 769.0784067966661 1638.3489763748225C126.93590599633353 1646.051169066769 -1062.3406511483036 1822.4815344407384 -1231.5525951547 1444.342712835633C-1400.7645391610963 1066.203891230527 -476.7595689437112 296.9697147840036 -43.13892443403893 -176.71736732968998C390.4817200756331 -650.4044494433837 442.0755107557909 -756.1379172514903 849.8264984917282 -829.3552813100989C1257.5774862276658 -902.5726453687076 1705.5439604077956 -994.1456042327605 1914.0658166984558 -528.1607148110115C2122.587672989116 -62.1758253892624 2089.270452416437 956.0160022505761 1850.7314086868982 1407.3721879142909 "></path><path d="M1887.0289287494252 -511.5863329538604C2091.827180463467 -53.922602271785536 2059.104910258157 946.0872284459133 1824.8254923095028 1389.3834822227755C1590.5460743608487 1832.6797359996376 1393.1633930247795 1608.6710316383496 762.4877225958817 1616.2356851750833C131.81205216698368 1623.8003387118165 -1036.2274236000708 1797.0801618469654 -1202.4177257492101 1425.693819199094C-1368.6080278983493 1054.3074765512224 -461.10314643484594 298.809624684101 -35.225727719989436 -166.41875953470526C390.65169099486707 -631.6471437535116 441.3241639843077 -735.4925139221878 841.7938840821034 -807.4024250511784C1242.2636041798987 -879.312336180169 1682.230677035384 -969.2500636359352 1887.0289287494252 -511.5863329538604C2091.827180463467 -53.922602271785536 2059.104910258157 946.0872284459133 1824.8254923095028 1389.3834822227755 "></path><path d="M1859.9920713179727 -495.01207316702175C2061.066718455395 -45.669501224620944 2028.9393986174546 936.158332570938 1798.919606449685 1371.394654460948C1568.8998142819155 1806.630976350958 1375.1059089701384 1586.6951575235116 755.8970689126754 1594.1222719050324C136.68822885521172 1601.5493862865524 -1010.1141655342598 1771.6786671828804 -1173.282825826142 1407.0448034922429C-1336.4514861180241 1042.4109398016049 -445.4466934084028 300.64941251388564 -27.31250048836182 -156.12027381003327C390.82169243167914 -612.8899601339521 440.5728477304026 -714.8472326631977 833.7613001900563 -785.4496908625704C1226.9497526497103 -856.0521490619429 1658.91742418055 -944.3546451094226 1859.9920713179727 -495.01207316702175C2061.066718455395 -45.669501224620944 2028.9393986174546 936.158332570938 1798.919606449685 1371.394654460948 "></path><path d="M1832.9552749216764 -478.4376913098706C2030.3063174824797 -37.416278107143626 1998.7739480119085 926.2295587662752 1773.0137816250235 1353.4059487694335C1547.253615238139 1780.5823387725914 1357.0484859506537 1564.7194054789866 749.306476264625 1572.0089807052937C141.56446657859624 1579.2985559316007 -984.0008464332925 1746.277294589107 -1144.1478648679176 1388.3959098557034C-1304.2948833025428 1030.5145251223003 -429.79017934680314 302.489322413983 -19.399212221577955 -145.82166601504832C390.99175490364746 -594.1326544440799 439.82159251165376 -694.2018293338951 825.7287773331664 -763.4968346036497C1211.635962154678 -832.7918398734043 1635.604232360873 -919.4591045125974 1832.9552749216764 -478.4376913098706C2030.3063174824797 -37.416278107143626 1998.7739480119085 926.2295587662752 1773.0137816250235 1353.4059487694335 "></path><path d="M1805.9184174902234 -461.863431523032C1999.5458554744082 -29.16317705997926 1968.6084363712062 916.3006628912995 1747.1078957652062 1335.4171210076056C1525.6073551592058 1754.5335791239117 1338.9910018960127 1542.7435313641486 742.7158225814187 1549.8955674352424C146.44064326682428 1557.0476035063357 -957.8875883674816 1720.8757999250215 -1115.0129649448497 1369.7468941488519C-1272.1383415222178 1018.6179883726827 -414.13372632036 304.3291102437679 -11.485984989950339 -135.52318029037633C391.16175634045953 -575.3754708245203 439.0702762577489 -673.5565480749051 817.6961934411192 -741.5441004150416C1196.3221106244896 -809.5316527551784 1612.290979506039 -894.5636859860846 1805.9184174902234 -461.863431523032C1999.5458554744082 -29.16317705997926 1968.6084363712062 916.3006628912995 1747.1078957652062 1335.4171210076056 "></path><path d="M1778.8813769533022 -445.2891717361932C1968.785210360868 -20.91007601281467 1938.442741625035 906.3717670163242 1721.2018267999197 1317.4282932457781C1503.9609119748038 1728.4848194752321 1320.9333347359034 1520.767657249311 736.1249857927432 1527.782154165191C151.3166368495838 1534.7966510810716 -931.7745134071395 1695.474305260936 -1085.8782481272503 1351.0978784420008C-1239.9819828473615 1006.7214516230651 -398.4774563993856 306.16889807355255 -3.5729408637912456 -125.224694565704C391.33157467180285 -556.6182872049608 438.31877689837506 -652.911266815915 809.6634264436034 -719.5913662264336C1181.0080759888324 -786.2714656369521 1588.9775435457368 -869.6682674595718 1778.8813769533022 -445.2891717361932C1968.785210360868 -20.91007601281467 1938.442741625035 906.3717670163242 1721.2018267999197 1317.4282932457781 "></path><path d="M1751.8445195218496 -428.7149119493547C1938.024748352796 -12.656974965650079 1908.2772299843327 896.4428711413486 1695.295940940102 1299.4394654839507C1482.314651895871 1702.4360598265525 1302.8758506812624 1498.7917831344726 729.534332109537 1505.6687408951398C156.19281353781184 1512.5456986558065 -905.6612553413285 1670.0728105968506 -1056.7433482041824 1332.4488627351493C-1207.8254410670363 994.8249148734476 -382.8210033729424 308.00868590333744 4.340286367836143 -114.92620884103201C391.5015761086149 -537.8611035854012 437.56746064447 -632.265985556925 801.6308425515572 -697.6386320378256C1165.694224458644 -763.0112785187262 1565.6642906909028 -844.7728489330591 1751.8445195218496 -428.7149119493547C1938.024748352796 -12.656974965650079 1908.2772299843327 896.4428711413486 1695.295940940102 1299.4394654839507 "></path><path d="M1724.807631572819 -412.14053009220345C1907.2642558271468 -4.403751848173215 1878.1116878260523 886.5140973366858 1669.390024562706 1281.4507597924357C1460.6683612993597 1676.3874222481854 1284.8183361090437 1476.816031089947 722.9436479087526 1483.555449695401C161.068959708462 1490.2948683008544 -879.5480277930957 1644.671438003078 -1027.6084787986924 1313.7999690986107C-1175.6689298042893 982.928500194143 -367.16458086407727 309.8485958034348 12.25348308188586 -104.62760104604718C391.6715470278489 -519.103797895529 436.81611387298676 -611.6205822276224 793.5982281419319 -675.6857757789049C1150.380342410877 -739.7509693301874 1542.3510073184912 -819.8773083362339 1724.807631572819 -412.14053009220345C1907.2642558271468 -4.403751848173215 1878.1116878260523 886.5140973366858 1669.390024562706 1281.4507597924357 "></path><path d="M1697.7707436237883 -395.5662703053648C1876.5037633014972 3.8493491989916038 1847.9461456677718 876.5852014617105 1643.4841081853106 1263.4619320306083C1439.0220707028489 1650.3386625995067 1266.7608215368246 1454.8401569751095 716.3529637079682 1461.4420364253501C165.9451058791119 1468.0439158755903 -853.4348002448628 1619.2699433389926 -998.4736093932027 1295.1509533917588C-1143.5124185415423 971.0319634445257 -351.5081583552121 311.6883836332195 20.16667979593535 -94.32911532137484C391.84151794708305 -500.3466142759695 436.0647671015038 -590.9753009686324 785.5656137323067 -653.7330415902968C1135.0664603631108 -716.4907822119615 1519.0377239460795 -794.9818898097211 1697.7707436237883 -395.5662703053648C1876.5037633014972 3.8493491989916038 1847.9461456677718 876.5852014617105 1643.4841081853106 1263.4619320306083 "></path><path d="M1670.7338556747573 -378.9920410361042C1845.7432707758471 12.102419728577843 1817.7806035094918 866.6562750691569 1617.5781918079147 1245.4730737512027C1417.3757801063375 1624.2898724332485 1248.7033069646054 1432.8642523426934 709.7622795071836 1439.3285926377202C170.82125204976182 1445.7929329327471 -827.32157269663 1593.868418157329 -969.3387399877126 1276.5019071673296C-1111.3559072787953 959.1353961773298 -335.8517358463471 313.52814094542623 28.079876509984842 -84.03066011428098C392.01148886631677 -481.58946117398807 435.31342033002056 -570.3300502272205 777.5329993226824 -631.7803379192669C1119.7525783153442 -693.2306256113135 1495.7244405736674 -770.0865018007864 1670.7338556747573 -378.9920410361042C1845.7432707758471 12.102419728577843 1817.7806035094918 866.6562750691569 1617.5781918079147 1245.4730737512027 "></path><path d="M1643.6969677257266 -362.41765917895304C1814.982778250198 20.35564284605516 1787.6150613512114 856.7275012644941 1591.6722754305188 1227.4843680596878C1395.7294895098262 1598.241234854882 1230.6457923923863 1410.8885002981679 703.1715953063992 1417.2153014379815C175.69739822041174 1423.5421025777955 -801.2083451483973 1568.4670455635555 -940.2038705822229 1257.8530135307901C-1079.1993960160485 947.2389814980252 -320.19531333748193 315.3680508455236 35.99307322403433 -73.73205231929614C392.1814597855507 -462.8321554841159 434.56207355853735 -549.6846468979179 769.5003849130571 -609.8274816603464C1104.4386962675771 -669.9703164227749 1472.4111572012557 -745.1909612039613 1643.6969677257266 -362.41765917895304C1814.982778250198 20.35564284605516 1787.6150613512114 856.7275012644941 1591.6722754305188 1227.4843680596878 "></path><path d="M1616.660079776696 -345.8433688745364C1784.2222857245479 28.60877441079765 1757.449519192931 846.7986359070965 1565.7663590531229 1209.4955708154384C1374.0831989133153 1572.1925057237804 1212.5882778201676 1388.912656700908 696.5809111056146 1395.1019186855083C180.5735443910619 1401.2911806701086 -775.0951176001644 1543.0655814170482 -911.0690011767329 1239.2040283415172C-1047.0428847533015 935.3424752659857 -304.5388908286169 317.2078691928864 43.906269938083824 -63.433536077045915C392.35143070478466 -444.0749413469782 433.81072678705414 -529.0393351213497 761.4677705034326 -587.8747169541602C1089.1248142198106 -646.7100987869707 1449.0978738288436 -720.2955121598703 1616.660079776696 -345.8433688745364C1784.2222857245479 28.60877441079765 1757.449519192931 846.7986359070965 1565.7663590531229 1209.4955708154384 "></path><path d="M1589.6231918276653 -329.2691701228539C1753.4617931988982 36.86181442280599 1727.2839770346504 836.8696789969649 1539.860442675727 1191.5066820184547C1352.436908316804 1546.1436850399446 1194.5307632479485 1366.9367215509142 689.9902269048303 1372.9884443803012C185.4496905617118 1379.0401672096878 -748.9818900519316 1517.664025717807 -881.9341317712431 1220.5549515995094C-1014.8863734905544 923.4458774812124 -288.88246831975175 319.04759598751525 51.819466652133315 -53.135111387529946C392.52140162401884 -425.3178187625749 433.05938001557115 -508.3941148975158 753.4351560938076 -565.9220438007084C1073.810932172044 -623.4499727039008 1425.784590456432 -695.4001546685139 1589.6231918276653 -329.2691701228539C1753.4617931988982 36.86181442280599 1727.2839770346504 836.8696789969649 1539.860442675727 1191.5066820184547 "></path><path d="M1562.5863038786342 -312.69491033601525C1722.7013006732486 45.11491546997047 1697.11843487637 826.9407831219896 1513.954526298331 1173.5178542566273C1330.7906177202926 1520.094925391265 1176.4732486757293 1344.9608474360762 683.3995427040456 1350.87503111025C190.32583673236172 1356.7892147844232 -722.8686625036987 1492.2625310537214 -852.7992623657531 1201.905935892658C-982.7298622278074 911.5493407315948 -273.2260458108867 320.8873838172999 59.732663366182805 -42.83662566285773C392.69137254325256 -406.56063514301536 432.30803324408794 -487.74883363852575 745.4025416841828 -543.9693096121002C1058.4970501242774 -600.1897855856748 1402.4713070840203 -670.5047361420011 1562.5863038786342 -312.69491033601525C1722.7013006732486 45.11491546997047 1697.11843487637 826.9407831219896 1513.954526298331 1173.5178542566273 "></path><path d="M1535.5494464471817 -296.1205284788641C1691.9408386651771 53.368138587447675 1666.9529232356676 817.0120093173268 1488.0486404385138 1155.5291485651123C1309.1443576413594 1494.0462878128983 1158.4157646210888 1322.985095391551 676.8088890208394 1328.761739910511C195.20201342059 1334.5383844294715 -696.7554044378878 1466.8611584599485 -823.6643624426852 1183.2570422561193C-950.5733204474824 899.65292605229 -257.56959278444344 322.7272937173973 67.64589059781065 -32.53801786787301C392.8613739800646 -387.8033294531432 431.55671699018285 -467.1034303092232 737.3699577921359 -522.0164533531797C1043.183198594089 -576.9294763971361 1379.1580542291867 -645.6091955451759 1535.5494464471817 -296.1205284788641C1691.9408386651771 53.368138587447675 1666.9529232356676 817.0120093173268 1488.0486404385138 1155.5291485651123 "></path><path d="M1508.512527980573 -279.54623817444735C1661.1803156219494 61.62127015219028 1636.787350559809 807.0831439599294 1462.1426935435397 1137.540351320863C1287.4980365272704 1467.9975586817968 1140.358219531291 1301.0092517942912 670.2181743024769 1306.6483571580384C200.07812907366178 1312.2874625217846 -670.6422074072332 1441.459694313441 -794.5295235547733 1164.608057066846C-918.4168397023135 887.7564198202508 -241.91320079315642 324.5671120647603 75.55905679428201 -22.239501625622665C393.0313143817207 -369.0461153160055 430.80533970112174 -446.458118532655 729.337312864933 -500.0636886469935C1027.8692860287447 -553.669258761332 1355.844740339197 -620.713746501085 1508.512527980573 -279.54623817444735C1661.1803156219494 61.62127015219028 1636.787350559809 807.0831439599294 1462.1426935435397 1137.540351320863 "></path><path d="M1481.4756705491204 -262.9718563172962C1630.4198536138779 69.87449326966737 1606.6218389191067 797.1543701552666 1436.236807683722 1119.551645629348C1265.8517764483377 1441.9489211034297 1122.3007354766505 1279.0334997497657 663.6275206192702 1284.5350659582991C204.95430576189005 1290.0366321668325 -644.5289493414222 1416.0583217196681 -765.3946236317054 1145.959163430307C-886.2602979219885 875.8600051409458 -226.25674776671326 326.40702196485745 83.47228402590963 -11.94089383063806C393.2013158185325 -350.28880962613346 430.05402344721665 -425.81271520335247 721.3047289728863 -478.11083238807294C1012.5554344985558 -530.4089495727934 1332.531487484363 -595.8182059042598 1481.4756705491204 -262.9718563172962C1630.4198536138779 69.87449326966737 1606.6218389191067 797.1543701552666 1436.236807683722 1119.551645629348 "></path><path d="M1454.4387826000898 -246.3976270480357C1599.6593610882283 78.12756379925383 1576.4562967608263 787.225443762713 1410.3308913063265 1101.5627873499425C1244.2054858518259 1415.900130937172 1104.2432209044318 1257.0575951173496 657.0368364184858 1262.4216221706702C209.83045193253997 1267.7856492239903 -618.4157217931894 1390.6567965380045 -736.2597542262154 1127.3101172058773C-854.1037866592415 863.9634378737501 -210.6003252578481 328.246779277064 91.38548073995935 -1.642438623543967C393.37128673776647 -331.5316565241519 429.30267667573344 -405.16746446194054 713.2721145632613 -456.158128717043C997.2415524507887 -507.14879297214543 1309.2182041119513 -570.9228178953251 1454.4387826000898 -246.3976270480357C1599.6593610882283 78.12756379925383 1576.4562967608263 787.225443762713 1410.3308913063265 1101.5627873499425 "></path><path d="M1427.4018946510587 -229.82336726119706C1568.8988685625782 86.38066484641843 1546.2907546025458 777.2965478877375 1384.4249749289306 1083.573959588115C1222.559195255315 1389.8513712884924 1086.1857063322127 1235.0817210025116 650.4461522177012 1240.3082089006184C214.70659810319012 1245.5346967987252 -592.3024942449565 1365.255301873919 -707.1248848207255 1108.661101499026C-821.9472753964944 852.066901124133 -194.94390274898308 330.08656710684886 99.29867745400861 8.656047101128252C393.5412576570004 -312.77447290459236 428.55132990425045 -384.5221832029505 705.2395001536365 -434.2053945284349C981.9276704030224 -483.88860585391933 1285.9049207395392 -546.0273993688124 1427.4018946510587 -229.82336726119706C1568.8988685625782 86.38066484641843 1546.2907546025458 777.2965478877375 1384.4249749289306 1083.573959588115 "></path><path d="M1400.365006702028 -213.2490769567802C1538.1383760369285 94.63379641116103 1516.1252124442658 767.3676825303403 1358.5190585515347 1065.5851623438657C1200.912904658804 1363.8026421573913 1068.1281917599936 1213.105877405252 643.8554680169168 1218.1948261481457C219.58274427384004 1223.2837748910392 -566.1892666967237 1339.8538377274117 -677.9900154152356 1090.0121163097526C-789.7907641337474 840.1703948920936 -179.28748024011793 331.92638545421187 107.21187416805833 18.954563343378595C393.7112285762346 -294.0172587674547 427.79998313276724 -363.8768714263823 697.2068857440115 -412.2526298222487C966.6137883552558 -460.6283882181151 1262.5916373671275 -521.1319503247215 1400.365006702028 -213.2490769567802C1538.1383760369285 94.63379641116103 1516.1252124442658 767.3676825303403 1358.5190585515347 1065.5851623438657 "></path><path d="M1373.3281187529974 -196.67469509962905C1507.377883511279 102.88701952863812 1485.9596702859853 757.4389087256775 1332.6131421741393 1047.5964566523508C1179.2666140622928 1337.7540045790242 1050.070677187775 1191.1301253607267 637.2647838161324 1196.081534948407C224.45889044448995 1201.032944536087 -540.076039148491 1314.4524651336387 -648.8551460097457 1071.3632226732138C-757.6342528710005 828.2739802127887 -163.6310577312529 333.76629535430925 115.1250708821076 29.253171138363314C393.8811994954683 -275.2599530775826 427.048636361284 -343.23146809707976 689.1742713343867 -390.29977356332813C951.2999063074892 -437.36807902957656 1239.2783539947159 -496.23640972789633 1373.3281187529974 -196.67469509962905C1507.377883511279 102.88701952863812 1485.9596702859853 757.4389087256775 1332.6131421741393 1047.5964566523508 "></path><path d="M1346.2912308039668 -180.1004353127904C1476.6173909856293 111.14012057580271 1455.7941281277049 747.510012850702 1306.707225796743 1029.6076288905233C1157.6203234657814 1311.7052449303446 1032.0131626155555 1169.1542512458886 630.6740996153478 1173.9681216783556C229.3350366151401 1178.7819921108223 -513.9628116002581 1289.0509704695532 -619.7202766042558 1052.7142069663623C-725.4777416082535 816.3774434631714 -147.97463522238786 335.60608318409413 123.03826759615731 39.55165686303553C394.05117041470226 -256.50276945802307 426.29728958980104 -322.58618683808965 681.1416569247617 -368.34703937472005C935.9860242597226 -414.10789191135046 1215.9650706223038 -471.34099120138353 1346.2912308039668 -180.1004353127904C1476.6173909856293 111.14012057580271 1455.7941281277049 747.510012850702 1306.707225796743 1029.6076288905233 "></path><path d="M1319.2542818197799 -163.52614500837365C1445.8568374248234 119.39325214054543 1425.6285249342682 737.5811474933046 1280.8012483841912 1011.618831646274C1135.9739718341143 1285.6565157992432 1013.9555870081804 1147.178407648629 624.0833543794072 1151.8547389258824C234.211121750634 1156.531070203136 -487.8496450871815 1263.6495063230457 -590.5854682339221 1034.065221777089C-693.3212913806628 804.480937231132 -132.31827374867885 337.4459015314569 130.95140327505055 49.850173105285876C394.2210802987802 -237.74555532088527 425.54588178316135 -301.94087506152147 673.1089814799807 -346.39427466853385C920.6720811767998 -390.84767427554624 1192.6517262147363 -446.44554215729266 1319.2542818197799 -163.52614500837365C1445.8568374248234 119.39325214054543 1425.6285249342682 737.5811474933046 1280.8012483841912 1011.618831646274 "></path><path d="M1292.2173938707488 -146.95191573911313C1415.0963448991738 127.6463226701319 1395.4629827759877 727.6522211007514 1254.8953320067958 993.6299733668686C1114.327681237603 1259.6077256329859 995.8980724359612 1125.2025030162129 617.4926701786226 1129.7412951382532C239.0872679212839 1134.2800872602934 -461.7364175389487 1238.2479811413825 -561.4505988284322 1015.4161755526595C-661.1647801179158 792.5843699639365 -116.66185123981381 339.2856588436639 138.86459998910004 60.14862831237997C394.3910512180141 -218.98840221890384 424.79453501167836 -281.29562432010954 665.0763670703557 -324.4415709975039C905.358199129033 -367.5875176748983 1169.3384428423242 -421.55015414835805 1292.2173938707488 -146.95191573911313C1415.0963448991738 127.6463226701319 1395.4629827759877 727.6522211007514 1254.8953320067958 993.6299733668686 "></path><path d="M1265.1805059217181 -130.3776559522745C1384.3358523735242 135.8994237172965 1365.2974406177073 717.7233252257756 1228.9894156293994 975.6411456050412C1092.6813906410919 1233.5589659843065 977.8405578637423 1103.226628901375 610.9019859778382 1107.627881868202C243.96341409193383 1112.0291348350288 -435.62318999071584 1212.846486477297 -532.3157294229424 996.767159845808C-629.0082688551688 780.6878332143192 -101.00542873094878 341.12544667344855 146.77779670314953 70.44711403705207C394.56102213724785 -200.23121859934423 424.04318824019515 -260.6503430611195 657.0437526607309 -302.4888368088958C890.0443170812664 -344.3273305566722 1146.0251594699123 -396.6547356218453 1265.1805059217181 -130.3776559522745C1384.3358523735242 135.8994237172965 1365.2974406177073 717.7233252257756 1228.9894156293994 975.6411456050412 "></path><path d="M1238.143617972687 -113.80327409512324C1353.575359847874 144.15264683477346 1335.1318984594268 707.7945514211128 1203.083499252004 957.652439913526C1071.0351000445805 1207.5103284059394 959.7830432915234 1081.2508768568496 604.3113017770536 1085.5145906684631C248.83956026258397 1089.7783044800765 -409.509962442483 1187.445113883524 -503.18086001745246 978.118266209269C-596.8517575924218 768.7914185350141 -85.34900622208374 342.9653565735457 154.69099341719914 80.7457218320369C394.730993056482 -181.47391290947212 423.29184146871194 -240.00493973181693 649.0111382511061 -280.53598054997525C874.7304350334998 -321.0670213681336 1122.7118760975006 -371.75919502502006 1238.143617972687 -113.80327409512324C1353.575359847874 144.15264683477346 1335.1318984594268 707.7945514211128 1203.083499252004 957.652439913526 "></path><path d="M1211.106760541235 -97.2288922379721C1322.814897839803 152.40586995225044 1304.9663868187245 697.86577761645 1177.1776133921862 939.663734222011C1049.3888399656478 1181.4616908275723 941.7255592368824 1059.2751248123243 597.7206480938473 1063.4012994687243C253.71573695081224 1067.5274741251246 -383.3967043766721 1162.0437412897509 -474.04596009438444 959.4693725727302C-564.6952158120968 756.8950038557093 -69.69255319564036 344.8052664736431 162.60422064882675 91.04432962702151C394.9009944932941 -162.71660721960006 422.5405252148071 -219.35953640251438 640.9785543590592 -258.5831242910547C859.4165835033114 -297.806712179595 1099.3986232426669 -346.8636544281948 1211.106760541235 -97.2288922379721C1322.814897839803 152.40586995225044 1304.9663868187245 697.86577761645 1177.1776133921862 939.663734222011 "></path><path d="M1184.069872592204 -80.65466296871159C1292.054405314153 160.6589404818369 1274.8008446604445 687.9368512238962 1151.2716970147903 921.6748759426055C1027.7425493691364 1155.4129006613146 923.6680446646635 1037.299220179908 591.1299638930627 1041.287855681095C258.59188312146216 1045.276491182282 -357.2834768284393 1136.6422161080873 -444.91109068889455 940.8203263483003C-532.5387045493499 744.9984365885139 -54.03613068677532 346.64502378584973 170.51741736287624 101.34278483411549C395.07096541252804 -143.95945411761863 421.78917844332386 -198.7142856611024 632.9459399494344 -236.63042062002478C844.1027014555445 -274.5465555789471 1076.085339870255 -321.9682664192602 1184.069872592204 -80.65466296871159C1292.054405314153 160.6589404818369 1274.8008446604445 687.9368512238962 1151.2716970147903 921.6748759426055 "></path><path d="M1157.032923608017 -64.08037266429483C1261.293851753347 168.91207204657974 1244.6352414670075 678.007985866499 1125.3657196022382 903.6860786983564C1006.0961977374691 1129.3641715302133 905.6104690572884 1015.3233765826485 584.5392186571221 1019.1744729286222C263.4679682569558 1023.0255692745955 -331.1703103153627 1111.2407519615801 -415.7762823185609 922.1713411590274C-500.3822543217591 733.1019303564744 -38.37976921306654 348.48484213321274 178.4305530417696 111.64130107636595C395.24087529660574 -125.2022399804809 421.0377706366844 -178.06897388453422 624.9132645046532 -214.67765591383852C828.7887583726219 -251.28633794314288 1052.7719954626868 -297.07281737516934 1157.032923608017 -64.08037266429483C1261.293851753347 168.91207204657974 1244.6352414670075 678.007985866499 1125.3657196022382 903.6860786983564 "></path><path d="M1129.9960356589863 -47.50599080714369C1230.5333592276975 177.16529516405672 1214.4696993087273 668.0792120618362 1099.4598032248425 885.6973730068412C984.4499071409577 1103.3155339518462 887.5529544850692 993.347624538123 577.9485344563377 997.0611817288834C268.34411442760586 1000.7747389196434 -305.0570827671299 1085.8393793678074 -386.641412913071 903.5224475224886C-468.2257430590121 721.2055156771696 -22.72334670420139 350.32475203331 186.3437497558191 121.93990887135055C395.4108462158397 -106.44493429060884 420.2864238652014 -157.42357055523166 616.8806500950282 -192.724799654918C813.4748763248551 -228.02602875460428 1029.458712090275 -272.1772767783441 1129.9960356589863 -47.50599080714369C1230.5333592276975 177.16529516405672 1214.4696993087273 668.0792120618362 1099.4598032248425 885.6973730068412 "></path><path d="M1102.9591477099555 -30.93173102030505C1199.7728667020478 185.4183962112213 1184.3041571504468 658.1503161868607 1073.5538868474468 867.7085452450137C962.8036165444466 1077.2667743031668 869.4954399128501 971.3717504232852 571.3578502555531 974.9477684588321C273.2202605982559 978.5237864943788 -278.94385521889706 1060.4378847037217 -357.5065435075811 884.8734318156369C-436.0692317962651 709.3089789275523 -7.066924195336242 352.1645398630949 194.25694646986858 132.23839459602277C395.58081713507363 -87.68775067104923 419.5350770937182 -136.7782892962416 608.8480356854034 -170.77206546630993C798.1609942770885 -204.76584163637818 1006.1454287178633 -247.28185825183135 1102.9591477099555 -30.93173102030505C1199.7728667020478 185.4183962112213 1184.3041571504468 658.1503161868607 1073.5538868474468 867.7085452450137 "></path><path d="M1075.9222597609248 -14.357471233466413C1169.012374176398 193.6714972583859 1154.1386149921664 648.2214203118851 1047.647970470051 849.7197174831863C941.1573259479355 1051.2180146544872 851.4379253406312 949.3958763084472 564.7671660547685 952.8343551887808C278.0964067689059 956.2728340691142 -252.83062767066423 1035.0363900396362 -328.3716741020912 866.2244161087856C-403.91272053351815 697.4124421779347 8.589498313528793 354.00432769287966 202.17014318391807 142.536880320695C395.7507880543076 -68.93056705148967 418.783730322235 -116.13300803725156 600.8154212757786 -148.81933127770185C782.847112229322 -181.50565451815214 982.8321453454514 -222.3864397253186 1075.9222597609248 -14.357471233466413C1169.012374176398 193.6714972583859 1154.1386149921664 648.2214203118851 1047.647970470051 849.7197174831863 "></path><path d="M1048.8853718118942 2.2169106236847256C1138.2518816507486 201.924720375863 1123.973072833886 638.2926465072223 1021.7420540926553 831.7310117916713C919.5110353514244 1025.1693770761206 833.3804107684123 927.4201242639219 558.1764818539841 930.7210639890422C282.97255293955595 934.0220037141623 -226.7174001224314 1009.6350174458635 -299.2368046966013 847.5755224722466C-371.7562092707712 685.5160274986301 24.24592082239394 355.8442375929769 210.08333989796768 152.8354881156797C395.9207589735415 -50.17326136161756 418.032383550752 -95.487604707949 592.7828068661534 -126.86647501878127C767.5332301815554 -158.24534532961354 959.5188619730397 -197.49089912849337 1048.8853718118942 2.2169106236847256C1138.2518816507486 201.924720375863 1123.973072833886 638.2926465072223 1021.7420540926553 831.7310117916713 "></path><path d="M1021.8484838628633 18.791170410523478C1107.491389125099 210.17782142302758 1093.8075306756057 628.363750632247 995.8361377152594 813.7421840298439C897.8647447549131 999.120617427441 815.3228961961931 905.4442501490839 551.5857976531997 908.6076507189907C287.84869911020587 911.7710512888978 -200.60417257419863 984.2335227817778 -270.1019352911114 828.9265067653951C-339.5996980080242 673.6194907490126 39.90234333125909 357.6840254227618 217.99653661201717 163.13397384035193C396.09072989277536 -31.41607774205795 417.28103677926856 -74.8423234489589 584.7501924565286 -104.9137408301732C752.2193481337886 -134.98515821138744 936.2055786006279 -172.59548060198063 1021.8484838628633 18.791170410523478C1107.491389125099 210.17782142302758 1093.8075306756057 628.363750632247 995.8361377152594 813.7421840298439 "></path><path d="M994.8115959138327 35.36546071494024C1076.7308965994491 218.43095298777018 1063.6419885173252 618.4348852748496 969.9302213378635 795.7533867855946C876.218454158402 973.0718882963395 797.2653816239742 883.4684065518243 544.9951134524151 886.4942679665178C292.7248452808559 889.5201293812111 -174.4909450259658 958.8320586352706 -240.96706588562148 810.2775215761219C-307.4431867452772 661.7229845169734 55.558765840124124 359.5238437701248 225.90973332606666 173.43249008260227C396.2607008120094 -12.65886360492027 416.5296900077856 -54.197011672390715 576.7175780469038 -82.960976123987C736.905466086022 -111.72494057558322 912.892295228216 -147.70003155788976 994.8115959138327 35.36546071494024C1076.7308965994491 218.43095298777018 1063.6419885173252 618.4348852748496 969.9302213378635 795.7533867855946 "></path><path d="M967.7747079648018 51.93972050177888C1045.9704040737995 226.68405403493477 1033.4764463590448 608.5059893998744 944.0243049604678 777.7645590237671C854.5721635618906 947.0231286476601 779.2078670517553 861.4925324369865 538.4044292516305 864.3808546964665C297.60099145150593 867.2691769559467 -148.37771747773297 933.4305639711852 -211.83219648013159 791.6285058692706C-275.28667548253026 649.8264477673561 71.21518834898916 361.3636315999096 233.82293004011626 183.7309758072745C396.43067173124325 6.0983200146393415 415.77834323630236 -33.55173041340066 568.684963637279 -61.00824193537892C721.5915840382554 -88.46475345735718 889.5790118558043 -122.80461303137702 967.7747079648018 51.93972050177888C1045.9704040737995 226.68405403493477 1033.4764463590448 608.5059893998744 944.0243049604678 777.7645590237671 "></path><path d="M940.7378200157711 68.51404132377377C1015.2099115481499 234.9372161172555 1003.3109042007643 598.5771545600551 918.1183885830719 759.7757922970959C832.9258729653798 920.9744300341367 761.1503524795362 839.5167193573047 531.8137450508461 842.2675024615714C302.47713762215596 845.0182855658381 -122.26448992950014 908.0291303422559 -182.6973270746417 772.9795511975753C-243.13016421978324 637.9299720528948 86.87161085785431 363.2034804648506 241.73612675416575 194.02952256710284C396.6006426504772 24.855564669355147 415.02699646481926 -12.906388119254359 560.6523492276542 -39.05544671161459C706.2777019904888 -65.20450530397483 866.2657284833924 -97.90913346970802 940.7378200157711 68.51404132377377C1015.2099115481499 234.9372161172555 1003.3109042007643 598.5771545600551 918.1183885830719 759.7757922970959 "></path><path d="M913.7009015491622 85.08836214576866C984.4493885049219 243.19037819957634 973.1453315249057 588.6483197202359 892.2124416880981 741.7870255704247C811.2795518512903 894.9257314206134 743.0928073897392 817.540906277623 525.2230303324834 820.1541502266764C307.35325327522787 822.7673941757298 -96.15129289884544 882.6276967133267 -153.56248818672992 754.3305965258801C-210.9736834746144 626.0334963384337 102.52800284914133 365.0433293297916 249.64929295063712 204.3280693269313C396.770583052133 43.61280932407101 414.27561917575804 7.738954174891944 552.6197043004511 -17.102651487850267C690.9637894251441 -41.94425715059248 842.9524145934024 -73.01365390803903 913.7009015491622 85.08836214576866C984.4493885049219 243.19037819957634 973.1453315249057 588.6483197202359 892.2124416880981 741.7870255704247 "></path><path d="M886.6639830825534 101.66262193260735C953.6888654616941 251.44347924674094 942.9797588490474 578.7194238452606 866.3064947931243 723.7981978085973C789.6332307372011 868.876971771934 725.0352622999421 795.5650321627852 518.6323156141209 798.0407369566253C312.22936892829966 800.5164417504652 -70.03809586819074 857.2262020492412 -124.42764929881815 735.6815808190288C-178.81720272944557 614.1369595888162 118.18439484042824 366.8831171595765 257.5624591471085 214.62655505160353C396.94052345378884 62.369992943630564 413.5242418866967 28.384235433881997 544.587059373248 4.85008270075781C675.6498768597994 -18.684070032366378 819.6391007034126 -48.11823538152629 886.6639830825534 101.66262193260735C953.6888654616941 251.44347924674094 942.9797588490474 578.7194238452606 866.3064947931243 723.7981978085973 "></path><path d="M859.6271256511009 118.23694275460224C922.9284034536226 259.6966413290618 912.814247208345 568.7905890054413 840.4006089333066 705.809431081926C767.9869706582681 842.8282731584106 706.9777782453011 773.5892190831037 512.0416619309145 775.9273847217303C317.10554561652793 778.2655503603571 -43.924837802379784 831.824768420312 -95.29274937575013 717.0326261473335C-146.66066094912048 602.240483874355 133.8408478668715 368.7229660245175 265.4756863787362 224.925101811432C397.110524890601 81.12723759834643 412.7729256327916 49.0295777280283 536.5544754812013 26.802877924522136C660.336025329611 4.576178121015914 796.3258478485791 -23.222755819857298 859.6271256511009 118.23694275460224C922.9284034536226 259.6966413290618 912.814247208345 568.7905890054413 840.4006089333066 705.809431081926 "></path><path d="M832.5902682196481 134.81120254144088C892.1679414455512 267.94974237622637 882.6487355676427 558.8616931304659 814.4947230734888 687.8206033200986C746.3407105793349 816.7795135097313 688.9202941906601 751.6133449682657 505.45100824770816 753.8139714516792C321.981722304756 756.0145979350925 -17.811579736568888 806.4232737562265 -66.15784945268211 698.3836104404822C-114.50411916879534 590.3439471247377 149.49730089331467 370.5627538543024 273.38891361036383 235.2235875361041C397.280526327413 99.88442121790604 412.02160937888664 69.67485898701841 528.5218915891545 48.75561211313021C645.0221737994223 27.836365239242014 773.0125949937451 1.6726627066554443 832.5902682196481 134.81120254144088C892.1679414455512 267.94974237622637 882.6487355676427 558.8616931304659 814.4947230734888 687.8206033200986 "></path><path d="M805.5533497530394 151.38552336343582C861.4074184023234 276.2029044585471 852.4831628917841 548.9328582906469 788.588776178515 669.8318365934274C724.6943894652459 790.7308148962079 670.8627491008631 729.6375318885839 498.86029352934554 731.7006192167842C326.857837957828 733.7637065449842 8.301617294085816 781.0218401272973 -37.023010564770345 679.734655768787C-82.3476384236265 578.4474714102765 165.1536928846017 372.4026027192434 281.3020798068353 245.52213429593257C397.4504667290689 118.64166587262184 411.2702320898254 90.32020128116471 520.4892466619515 70.70840733689454C629.7082612340776 51.09661339262436 749.6992811037553 26.568142268324436 805.5533497530394 151.38552336343582C861.4074184023234 276.2029044585471 852.4831628917841 548.9328582906469 788.588776178515 669.8318365934274 "></path><path d="M778.5164618040085 167.9598441854307C830.6469258766735 284.45606654086805 822.3176207335036 539.0040234508276 762.6828598011191 651.8430698667563C703.0480988687345 764.6821162826848 652.8052345286442 707.6617188089024 492.26960932856105 709.5872669818892C331.7339841284779 711.5128151548759 34.414844842318644 755.6204064983681 -7.888141159280451 661.0857010970918C-50.191127160879546 566.5509956958153 180.81011539346673 374.24245158418444 289.2152765208848 255.82068105576104C397.62043764830287 137.39891052733765 410.5188853183422 110.96554357531102 512.4566322523266 92.66120256065886C614.394379186311 74.35686154600671 726.3859977313434 51.46362182999343 778.5164618040085 167.9598441854307C830.6469258766735 284.45606654086805 822.3176207335036 539.0040234508276 762.6828598011191 651.8430698667563 "></path><path d="M751.4795738549778 184.53413448984747C799.8864333510239 292.70919810561065 792.1520785752234 529.0751580934303 736.7769434237234 633.8542726225069C681.4018082722233 738.6333871515834 634.747719956425 685.6858752116426 485.67892512777655 687.4738842294161C336.61013029912795 689.2618932471894 60.52807239055147 730.2189423518608 21.246728246209443 642.4367159078184C-18.034615898132586 554.6544894637761 196.46653790233188 376.08226993154744 297.1284732349343 266.1191972980114C397.7904085675368 156.15612466447539 409.7675385468591 131.6108553518792 504.4240178427017 114.61396726684507C599.0804971385443 97.61707918181088 703.0727143589315 76.3590708740843 751.4795738549778 184.53413448984747C799.8864333510239 292.70919810561065 792.1520785752234 529.0751580934303 736.7769434237234 633.8542726225069 "></path><path d="M724.4426859059471 201.10842479426424C769.1259408253743 300.96232967035337 761.986536416943 519.146292736033 710.8710270463276 615.8654753782575C659.7555176757122 712.5846580204822 616.6902053842061 663.7100316143828 479.08824092699206 665.360501476943C341.486276469778 667.010971339503 86.6412999387843 704.8174782053536 50.38159765169934 623.7877307185452C14.121895364614431 542.757983231737 212.12296041119697 377.92208827891034 305.0416699489838 276.41771354026173C397.96037948677076 174.91333880161312 409.016191775376 152.25616712844737 496.3914034330767 136.56673197303127C583.7666150907777 120.8772968176151 679.7594309865199 101.25451991817522 724.4426859059471 201.10842479426424C769.1259408253743 300.96232967035337 761.986536416943 519.146292736033 710.8710270463276 615.8654753782575 "></path><path d="M697.4057979569163 217.68271509868106C738.3654482997246 309.215461235096 731.8209942586626 509.21742737863576 684.9651106689317 597.8766781340082C638.109227079201 686.5359288893807 598.6326908119871 641.7341880171231 472.49755672620756 643.2471187244698C346.3624226404279 644.7600494318165 112.75452748701713 679.4160140588463 79.51646705718923 605.1387455292719C46.27840662736139 530.8614769996976 227.77938292006206 379.76190662627334 312.9548666630333 286.7162297825121C398.1303504060047 193.6705529387508 408.2648450038928 172.90147890501555 488.3587890234519 158.51949667921747C568.452733043011 144.13751445341933 656.446147614108 126.14996896226609 697.4057979569163 217.68271509868106C738.3654482997246 309.215461235096 731.8209942586626 509.21742737863576 684.9651106689317 597.8766781340082 "></path><path d="M670.3689100078856 234.25700540309782C707.6049557740749 317.4685927998387 701.6554521003821 499.2885620212385 659.059194291536 579.8878808897589C616.4629364826899 660.4871997582793 580.5751762397681 619.7583444198633 465.90687252542307 621.1337359719967C351.23856881107804 622.50912752413 138.8677550352499 654.0145499123389 108.65133646267913 586.4897603399986C78.43491789010835 518.9649707676583 243.43580542892715 381.60172497363624 320.8680633770829 297.01474602476236C398.30032132523866 212.42776707588854 407.5134982324096 193.54679068158373 480.3261746138271 180.47226138540367C553.1388509952444 167.39773208922355 633.1328642416962 151.04541800635695 670.3689100078856 234.25700540309782C707.6049557740749 317.4685927998387 701.6554521003821 499.2885620212385 659.059194291536 579.8878808897589 "></path><path d="M643.3320220588548 250.83132622509277C676.8444632484252 325.72175488215953 671.4899099421018 489.35972718141943 633.1532779141403 561.8991141630877C594.8166458861787 634.4385011447561 562.5176616675492 597.7825313401817 459.3161883246386 599.0203837371017C356.11471498172796 600.2582361340217 164.98098258348273 628.6131162834097 137.78620586816902 567.8408056683035C110.59142915285537 507.06849505319724 259.09222793779225 383.44157383857737 328.78126009113237 307.31329278459083C398.4702922444726 231.18501173060434 406.7621514609265 214.1921329757301 472.2935602042021 202.42505660916794C537.8249689474778 190.65798024260584 609.8195808692844 175.94089756802595 643.3320220588548 250.83132622509277C676.8444632484252 325.72175488215953 671.4899099421018 489.35972718141943 633.1532779141403 561.8991141630877 "></path><path d="M616.295118851035 267.40561652950953C646.0839554639865 333.97488644690225 641.3243525250323 479.43086182402203 607.2473462779553 543.9103169188384C573.1703400308784 608.3897720136547 544.460131836541 575.8066877429219 452.725488865065 576.9070009846287C360.9908458935889 578.0073142263353 191.0941948729265 603.2116521369023 166.92106001486985 549.1918204790302C142.74792515681327 495.1719888211579 274.7486351878683 385.28139218594026 336.6944415463929 317.6118090268411C398.6402479049175 249.94222586774208 406.0107894306543 234.83744475229827 464.26093053578825 224.37782131535414C522.5110716409221 213.91819787841007 586.5062822380835 200.8363466121168 616.295118851035 267.40561652950953C646.0839554639865 333.97488644690225 641.3243525250323 479.43086182402203 607.2473462779553 543.9103169188384 "></path><path d="M589.2582461607933 283.9799068339263C615.3234781971258 342.22801801164496 611.1588256255409 469.50199646662475 581.3414451593486 525.921519674589C551.5240646931563 582.3410428825533 526.4026325231112 553.8308441456621 446.1348199230696 554.7936182321555C365.867007323028 555.7563923186489 217.20743767994838 577.810187990395 196.05594467914887 530.5428352897568C174.9044516783493 483.2754825891186 290.4050729555224 387.12121053330316 344.60765351923146 327.91032526909146C398.8102340829405 268.69944000487976 405.25945791796016 255.48275652886645 456.2283313849523 246.33058602154034C507.19720485194455 237.1784155142143 563.1930141244608 225.73179565620768 589.2582461607933 283.9799068339263C615.3234781971258 342.22801801164496 611.1588256255409 469.50199646662475 581.3414451593486 525.921519674589 "></path><path d="M562.2213429529736 300.5542276559212C584.5629704126872 350.48118009396575 580.9932682084715 459.5731616268056 555.4355135231638 507.93275294791783C529.8777588378562 556.2923442690301 508.34510269210307 531.8550310659805 439.54412046349603 532.6802659972606C370.743138234889 533.5055009285406 243.32064996939215 552.4087543614659 225.1907988258497 511.89388061806164C207.0609476823072 471.37900687465753 306.0614802055985 388.96105939824423 352.5208349744919 338.2088720289199C398.9801897433854 287.4566846595956 404.508095887688 276.12809882301275 448.19570171653834 268.28338124530467C491.8833075453888 260.43866366759664 539.8797154932599 250.62727521787667 562.2213429529736 300.5542276559212C584.5629704126872 350.48118009396575 580.9932682084715 459.5731616268056 555.4355135231638 507.93275294791783 "></path><path d="M535.1844397451537 317.12851796033794C553.8024626282483 358.7343116587084 550.8277107914021 449.6442962694083 529.5295818869789 489.9439557036685C508.2314529825559 530.2436151379287 490.287572861095 509.8791874687207 432.9534210039225 510.5668832447874C375.61926914674996 511.25457902085407 269.4338622588359 527.0072902149585 254.32565297255053 493.24489542878837C239.21744368626514 459.4825006426182 321.7178874556745 390.8008777456072 360.4340164297524 348.50738827117027C399.15014540383027 306.2138987967333 403.7567338574157 296.7734105995809 440.1630720481245 290.23614595149087C476.56941023883314 283.6988813034008 516.566416862059 275.52272426196754 535.1844397451537 317.12851796033794C553.8024626282483 358.7343116587084 550.8277107914021 449.6442962694083 529.5295818869789 489.9439557036685 "></path><path d="M508.147551796123 333.70280826475476C523.0419701025987 366.9874432234511 520.6621686331216 439.715430912011 503.62366550958313 471.9551584594192C486.58516238604466 504.19488600682735 472.23005828887597 487.90334387146095 426.362736803138 488.45350049231433C380.49541531739993 489.0036571131677 295.54708980706874 501.60582606845117 283.4605223780404 474.5959102395151C271.3739549490121 447.58599441057896 337.37430996453963 392.64069609297013 368.3472131438019 358.80590451342056C399.3201163230642 324.97111293387104 403.0053870859326 317.4187223761491 432.1304576384996 312.18891065767707C461.25552819106656 306.95909893920503 493.2531334896472 300.4181733060584 508.147551796123 333.70280826475476C523.0419701025987 366.9874432234511 520.6621686331216 439.715430912011 503.62366550958313 471.9551584594192 "></path><path d="M481.11066384709227 350.2770985691715C492.2814775769491 375.2405747881938 490.49662647484115 429.78656555461373 477.71774913218735 453.96636121516985C464.93887178953355 478.146156875726 454.172543716657 465.9275002742012 419.7720526023535 466.3401177398412C385.37156148804996 466.75273520548126 321.6603173553015 476.2043619219439 312.5953917835303 455.94692505024176C303.53046621175906 435.6894881785397 353.0307324734047 394.4805144403331 376.2604098578514 369.1044207556709C399.49008724229816 343.7283270710087 402.25404031444947 338.06403415271734 424.09784322887464 334.14167536386327C445.94164614329986 330.21931657500926 469.93985011723544 325.3136223501493 481.11066384709227 350.2770985691715C492.2814775769491 375.2405747881938 490.49662647484115 429.78656555461373 477.71774913218735 453.96636121516985 "></path><path d="M454.0737758980615 366.85140413237735C461.52098505129936 383.49372161172556 460.3310843165608 419.8577154560055 451.81183275479157 435.9775792297096C443.29258119302233 452.0974430034137 436.115029144438 443.9516719357305 413.181368401569 444.22675024615717C390.2477076587 444.50182855658386 347.77354490353434 450.8029130342256 341.7302611890202 437.29795511975755C335.686977474506 423.79299720528945 368.6871549822698 396.32034804648504 384.17360657190096 379.4029522567103C399.6600581615321 362.4855564669355 401.5026935429663 358.7093611880746 416.0652288192498 356.09445532883854C430.6277640955333 353.47954946960255 446.6265667448236 350.2090866530292 454.0737758980615 366.85140413237735C461.52098505129936 383.49372161172556 460.3310843165608 419.8577154560055 451.81183275479157 435.9775792297096 "></path><path d="M427.03688794903076 383.42570969558324C430.7604925256497 391.7468684352573 430.1655421582804 409.9288653573973 425.9059163773958 417.9887972442493C421.64629059651116 426.04872913110137 418.057514572219 421.97584359725977 406.5906842007845 422.1133827524731C395.12385382934997 422.25092190768646 373.8867724517672 425.40146414650735 370.8651305945101 418.6489851892733C367.84348873725304 411.89650623203926 384.3435774911349 398.16018165263705 392.08680328595045 389.70148375774966C399.83002908076605 381.24278586286226 400.75134677148316 379.3546882234318 408.0326144096249 378.0472352938138C415.31388204776664 376.7397823641958 423.31328337241183 375.10455095590913 427.03688794903076 383.42570969558324C430.7604925256497 391.7468684352573 430.1655421582804 409.9288653573973 425.9059163773958 417.9887972442493 "></path></g></svg>