<svg width="156" height="157" viewBox="0 0 156 157" fill="none" xmlns="http://www.w3.org/2000/svg">
<path fill-rule="evenodd" clip-rule="evenodd" d="M105 85.7C94.2 85.7 85.3 94.5 85.3 105.4V152.8C85.3 154.7 83.8 156.2 81.9 156.2H73.3C71.4 156.2 69.9 154.7 69.9 152.8V105.4C69.9 94.6 61.1 85.7 50.2 85.7H3.4C1.5 85.7 0 84.2 0 82.3V74.3C0 72.4 1.5 70.9 3.4 70.9H50.3C61.1 70.9 70 62.1 69.9 51.2V3.4C69.9 1.5 71.4 0 73.3 0H82C83.9 0 85.4 1.5 85.4 3.4V51.2C85.4 62 94.2 70.9 105.1 70.9H151.7C153.6 70.9 155.1 72.4 155.1 74.3V82.3C155.1 84.2 153.6 85.7 151.7 85.7H105Z" fill="white"/>
</svg>
