<svg width="177" height="361" viewBox="0 0 177 361" fill="none" xmlns="http://www.w3.org/2000/svg">
<g id="iphone-svg">
<path id="iphone-outside" d="M151.5 1H99H21C6.2 6.2 2.16667 18.1667 2 23.5V66H0.5V77.5H2V90H0.5V113.5H2V122.5H0.5V146.5H2V339C4.4 353 18 359.167 24.5 360.5H153C171.8 356.1 175.5 341.333 175 334.5V137H176.5V98H175L174 21.5C171.6 5.9 158 1.33333 151.5 1Z" fill="#A3A462" stroke="#282727" stroke-width="0.7"/>
<path id="up-line" d="M73.5 3H102.5" stroke="#282727"/>
<path id="level-one-line" d="M75 5.5H88.5H101.5C102.7 5.5 103 3.83333 103 3H151C164.6 3.4 170.667 15.1667 172 21V338C172 351.6 157 357.667 149.5 359H33C12.6 359.4 5.16667 345.167 4 338V22C6.8 7.6 20.1667 3 26.5 2.5H73C73 4.9 74.3333 5.5 75 5.5Z" fill="#0D0D0D" stroke="#282727"/>
<path id="level-two-inside" d="M112.5 20H88.5H70.5C60.5 20 58.6667 12.3333 59 8.5H21C10.6 12.1 8.33338 22 8.50004 26.5V336C10.9 349.6 22.5 353.667 28 354H149C164.6 352.4 167.833 341.333 167.5 336V26.5C167.1 13.7 158.333 9.16667 154 8.5H119C119 16.1 114.667 19.3333 112.5 20Z" fill="#FEFEFE" stroke="#0D0D0D"/>
<g id="iphone-cam">
<circle cx="66.5" cy="11.5" r="2.5" fill="#00D1FF" fill-opacity="0.2"/>
<circle cx="66.5" cy="11.5" r="2.3" stroke="#30338C" stroke-opacity="0.38" stroke-width="0.4"/>
</g>
</g>
</svg>
