<svg width="177" height="361" viewBox="0 0 177 361" fill="none" xmlns="http://www.w3.org/2000/svg">
<g id="iphone-svg">
<path id="iphone-outside" d="M151.5 1H99H21C6.2 6.2 2.16667 18.1667 2 23.5V66H0.5V77.5H2V90H0.5V113.5H2V122.5H0.5V146.5H2V339C4.4 353 18 359.167 24.5 360.5H153C171.8 356.1 175.5 341.333 175 334.5V137H176.5V98H175L174 21.5C171.6 5.9 158 1.33333 151.5 1Z" fill="#A3A462" stroke="#282727" stroke-width="0.6"/>
<path id="up-line" d="M73.5 3H102.5" stroke="#282727"/>
<path id="level-one-line" d="M75 5.5H88.5H101.5C102.7 5.5 103 3.83333 103 3H151C164.6 3.4 170.667 15.1667 172 21V338C172 351.6 157 357.667 149.5 359H33C12.6 359.4 5.16667 345.167 4 338V22C6.8 7.6 20.1667 3 26.5 2.5H73C73 4.9 74.3333 5.5 75 5.5Z" fill="#0D0D0D" stroke="#282727"/>
<path id="level-two-inside" d="M112.5 20H88.5H70.5C60.5 20 58.6667 12.3333 59 8.5H21C10.6 12.1 8.33338 22 8.50004 26.5V336C10.9 349.6 22.5 353.667 28 354H149C164.6 352.4 167.833 341.333 167.5 336V26.5C167.1 13.7 158.333 9.16667 154 8.5H119C119 16.1 114.667 19.3333 112.5 20Z" fill="#FEFEFE" stroke="#0D0D0D"/>
<g id="iphone-cam">
<circle cx="66.5" cy="11.5" r="2.5" fill="#00D1FF" fill-opacity="0.2"/>
<circle cx="66.5" cy="11.5" r="2.3" stroke="#30338C" stroke-opacity="0.38" stroke-width="0.4"/>
</g>
<g id="first_text">
<path id="Your Photos" d="M60.1184 28.7273H61.6063L63.3855 31.9446H63.4565L65.2356 28.7273H66.7235L64.0779 33.2869V36H62.764V33.2869L60.1184 28.7273ZM68.5634 36.1065C68.0307 36.1065 67.5691 35.9893 67.1785 35.755C66.7878 35.5206 66.4848 35.1927 66.2694 34.7713C66.0563 34.3499 65.9498 33.8575 65.9498 33.294C65.9498 32.7306 66.0563 32.237 66.2694 31.8132C66.4848 31.3894 66.7878 31.0604 67.1785 30.826C67.5691 30.5916 68.0307 30.4744 68.5634 30.4744C69.0961 30.4744 69.5577 30.5916 69.9483 30.826C70.339 31.0604 70.6408 31.3894 70.8539 31.8132C71.0693 32.237 71.177 32.7306 71.177 33.294C71.177 33.8575 71.0693 34.3499 70.8539 34.7713C70.6408 35.1927 70.339 35.5206 69.9483 35.755C69.5577 35.9893 69.0961 36.1065 68.5634 36.1065ZM68.5705 35.0767C68.8593 35.0767 69.1008 34.9974 69.2949 34.8388C69.4891 34.6778 69.6335 34.4624 69.7282 34.1925C69.8252 33.9226 69.8738 33.6219 69.8738 33.2905C69.8738 32.9567 69.8252 32.6548 69.7282 32.3849C69.6335 32.1127 69.4891 31.8961 69.2949 31.7351C69.1008 31.5741 68.8593 31.4936 68.5705 31.4936C68.2746 31.4936 68.0284 31.5741 67.8319 31.7351C67.6377 31.8961 67.4921 32.1127 67.3951 32.3849C67.3004 32.6548 67.253 32.9567 67.253 33.2905C67.253 33.6219 67.3004 33.9226 67.3951 34.1925C67.4921 34.4624 67.6377 34.6778 67.8319 34.8388C68.0284 34.9974 68.2746 35.0767 68.5705 35.0767ZM75.3447 33.706V30.5455H76.6302V36H75.3838V35.0305H75.3269C75.2038 35.3359 75.0014 35.5857 74.7197 35.7798C74.4403 35.974 74.0959 36.071 73.6863 36.071C73.3288 36.071 73.0128 35.9917 72.7382 35.8331C72.4659 35.6721 72.2528 35.4389 72.099 35.1335C71.9451 34.8258 71.8681 34.4541 71.8681 34.0185V30.5455H73.1536V33.8196C73.1536 34.1652 73.2483 34.4399 73.4377 34.6435C73.6271 34.8471 73.8757 34.9489 74.1835 34.9489C74.3729 34.9489 74.5563 34.9027 74.7339 34.8104C74.9115 34.718 75.0571 34.5807 75.1707 34.3984C75.2867 34.2138 75.3447 33.983 75.3447 33.706ZM77.5521 36V30.5455H78.7986V31.4545H78.8554C78.9548 31.1397 79.1253 30.897 79.3667 30.7266C79.6106 30.5537 79.8888 30.4673 80.2013 30.4673C80.2723 30.4673 80.3516 30.4709 80.4392 30.478C80.5291 30.4827 80.6037 30.491 80.6629 30.5028V31.6854C80.6085 31.6664 80.522 31.6499 80.4037 31.6357C80.2877 31.6191 80.1752 31.6108 80.0663 31.6108C79.8319 31.6108 79.6212 31.6617 79.4342 31.7635C79.2496 31.8629 79.104 32.0014 78.9974 32.179C78.8909 32.3565 78.8376 32.5613 78.8376 32.7933V36H77.5521ZM83.2542 36V28.7273H85.9815C86.5402 28.7273 87.009 28.8314 87.3878 29.0398C87.7689 29.2481 88.0566 29.5346 88.2507 29.8991C88.4472 30.2614 88.5454 30.6733 88.5454 31.1349C88.5454 31.6013 88.4472 32.0156 88.2507 32.3778C88.0542 32.7401 87.7642 33.0253 87.3807 33.2337C86.9971 33.4396 86.5248 33.5426 85.9638 33.5426H84.1562V32.4595H85.7862C86.1129 32.4595 86.3804 32.4027 86.5888 32.2891C86.7971 32.1754 86.951 32.0192 87.0504 31.8203C87.1522 31.6214 87.2031 31.393 87.2031 31.1349C87.2031 30.8769 87.1522 30.6496 87.0504 30.4531C86.951 30.2566 86.7959 30.1039 86.5852 29.995C86.3769 29.8838 86.1082 29.8281 85.7791 29.8281H84.5717V36H83.2542ZM90.5185 32.804V36H89.233V28.7273H90.4901V31.4723H90.554C90.6818 31.1645 90.8795 30.9219 91.147 30.7443C91.4169 30.5644 91.7602 30.4744 92.1769 30.4744C92.5557 30.4744 92.8859 30.5537 93.1676 30.7124C93.4494 30.871 93.6672 31.103 93.821 31.4084C93.9773 31.7138 94.0554 32.0866 94.0554 32.527V36H92.7699V32.7259C92.7699 32.3589 92.6752 32.0736 92.4858 31.87C92.2988 31.6641 92.036 31.5611 91.6975 31.5611C91.4702 31.5611 91.2666 31.6108 91.0867 31.7102C90.9091 31.8073 90.7694 31.9482 90.6676 32.1328C90.5682 32.3175 90.5185 32.5412 90.5185 32.804ZM97.345 36.1065C96.8124 36.1065 96.3507 35.9893 95.9601 35.755C95.5695 35.5206 95.2664 35.1927 95.051 34.7713C94.8379 34.3499 94.7314 33.8575 94.7314 33.294C94.7314 32.7306 94.8379 32.237 95.051 31.8132C95.2664 31.3894 95.5695 31.0604 95.9601 30.826C96.3507 30.5916 96.8124 30.4744 97.345 30.4744C97.8777 30.4744 98.3394 30.5916 98.73 30.826C99.1206 31.0604 99.4225 31.3894 99.6355 31.8132C99.851 32.237 99.9587 32.7306 99.9587 33.294C99.9587 33.8575 99.851 34.3499 99.6355 34.7713C99.4225 35.1927 99.1206 35.5206 98.73 35.755C98.3394 35.9893 97.8777 36.1065 97.345 36.1065ZM97.3521 35.0767C97.641 35.0767 97.8825 34.9974 98.0766 34.8388C98.2707 34.6778 98.4151 34.4624 98.5098 34.1925C98.6069 33.9226 98.6554 33.6219 98.6554 33.2905C98.6554 32.9567 98.6069 32.6548 98.5098 32.3849C98.4151 32.1127 98.2707 31.8961 98.0766 31.7351C97.8825 31.5741 97.641 31.4936 97.3521 31.4936C97.0562 31.4936 96.81 31.5741 96.6135 31.7351C96.4194 31.8961 96.2738 32.1127 96.1767 32.3849C96.082 32.6548 96.0347 32.9567 96.0347 33.2905C96.0347 33.6219 96.082 33.9226 96.1767 34.1925C96.2738 34.4624 96.4194 34.6778 96.6135 34.8388C96.81 34.9974 97.0562 35.0767 97.3521 35.0767ZM103.373 30.5455V31.5398H100.238V30.5455H103.373ZM101.012 29.2386H102.297V34.3594C102.297 34.5322 102.324 34.6648 102.376 34.7571C102.43 34.8471 102.501 34.9086 102.589 34.9418C102.676 34.9749 102.773 34.9915 102.88 34.9915C102.96 34.9915 103.034 34.9856 103.1 34.9737C103.169 34.9619 103.221 34.9512 103.256 34.9418L103.473 35.9467C103.404 35.9704 103.306 35.9964 103.178 36.0249C103.053 36.0533 102.899 36.0698 102.717 36.0746C102.395 36.084 102.105 36.0355 101.847 35.929C101.588 35.8201 101.384 35.652 101.232 35.4247C101.083 35.1974 101.01 34.9134 101.012 34.5724V29.2386ZM106.369 36.1065C105.837 36.1065 105.375 35.9893 104.984 35.755C104.594 35.5206 104.291 35.1927 104.075 34.7713C103.862 34.3499 103.756 33.8575 103.756 33.294C103.756 32.7306 103.862 32.237 104.075 31.8132C104.291 31.3894 104.594 31.0604 104.984 30.826C105.375 30.5916 105.837 30.4744 106.369 30.4744C106.902 30.4744 107.364 30.5916 107.754 30.826C108.145 31.0604 108.447 31.3894 108.66 31.8132C108.875 32.237 108.983 32.7306 108.983 33.294C108.983 33.8575 108.875 34.3499 108.66 34.7713C108.447 35.1927 108.145 35.5206 107.754 35.755C107.364 35.9893 106.902 36.1065 106.369 36.1065ZM106.376 35.0767C106.665 35.0767 106.907 34.9974 107.101 34.8388C107.295 34.6778 107.439 34.4624 107.534 34.1925C107.631 33.9226 107.68 33.6219 107.68 33.2905C107.68 32.9567 107.631 32.6548 107.534 32.3849C107.439 32.1127 107.295 31.8961 107.101 31.7351C106.907 31.5741 106.665 31.4936 106.376 31.4936C106.08 31.4936 105.834 31.5741 105.638 31.7351C105.444 31.8961 105.298 32.1127 105.201 32.3849C105.106 32.6548 105.059 32.9567 105.059 33.2905C105.059 33.6219 105.106 33.9226 105.201 34.1925C105.298 34.4624 105.444 34.6778 105.638 34.8388C105.834 34.9974 106.08 35.0767 106.376 35.0767ZM113.985 31.9872L112.813 32.1151C112.78 31.9967 112.722 31.8854 112.639 31.7812C112.559 31.6771 112.45 31.593 112.312 31.5291C112.175 31.4652 112.007 31.4332 111.808 31.4332C111.541 31.4332 111.316 31.4912 111.134 31.6072C110.954 31.7232 110.865 31.8736 110.867 32.0582C110.865 32.2169 110.923 32.3459 111.041 32.4453C111.162 32.5447 111.361 32.6264 111.638 32.6903L112.568 32.8892C113.084 33.0005 113.468 33.1768 113.719 33.4183C113.972 33.6598 114.1 33.9759 114.102 34.3665C114.1 34.7098 113.999 35.0128 113.8 35.2756C113.604 35.536 113.33 35.7396 112.98 35.8864C112.63 36.0331 112.227 36.1065 111.773 36.1065C111.105 36.1065 110.568 35.9669 110.16 35.6875C109.753 35.4058 109.511 35.014 109.433 34.5121L110.686 34.3913C110.743 34.6375 110.864 34.8234 111.048 34.9489C111.233 35.0743 111.473 35.1371 111.769 35.1371C112.075 35.1371 112.32 35.0743 112.504 34.9489C112.691 34.8234 112.785 34.6683 112.785 34.4837C112.785 34.3274 112.724 34.1984 112.604 34.0966C112.485 33.9948 112.301 33.9167 112.05 33.8622L111.119 33.6669C110.596 33.558 110.209 33.3745 109.958 33.1165C109.707 32.8561 109.583 32.527 109.585 32.1293C109.583 31.7931 109.674 31.5019 109.859 31.2557C110.046 31.0071 110.305 30.8153 110.636 30.6804C110.97 30.5431 111.355 30.4744 111.79 30.4744C112.43 30.4744 112.933 30.6106 113.3 30.8828C113.669 31.1551 113.897 31.5232 113.985 31.9872Z" fill="black"/>
</g>
<g id="sec_text">
<path id="Vector" d="M17 54C17.8288 54 18.5 53.3288 18.5 52.5C18.5 51.6712 17.8288 51 17 51C16.1712 51 15.5 51.6712 15.5 52.5C15.5 53.3288 16.1712 54 17 54ZM17 54.75C15.9987 54.75 14 55.2525 14 56.25V57H20V56.25C20 55.2525 18.0013 54.75 17 54.75Z" fill="black"/>
<path id="login to Save Profile" d="M23.3586 51.6364V56H22.8557V51.6364H23.3586ZM25.6091 56.0682C25.3137 56.0682 25.0544 55.9979 24.8314 55.8572C24.6098 55.7166 24.4365 55.5199 24.3115 55.267C24.1879 55.0142 24.1262 54.7187 24.1262 54.3807C24.1262 54.0398 24.1879 53.7422 24.3115 53.4879C24.4365 53.2337 24.6098 53.0362 24.8314 52.8956C25.0544 52.755 25.3137 52.6847 25.6091 52.6847C25.9046 52.6847 26.1631 52.755 26.3847 52.8956C26.6077 53.0362 26.781 53.2337 26.9046 53.4879C27.0296 53.7422 27.0921 54.0398 27.0921 54.3807C27.0921 54.7187 27.0296 55.0142 26.9046 55.267C26.781 55.5199 26.6077 55.7166 26.3847 55.8572C26.1631 55.9979 25.9046 56.0682 25.6091 56.0682ZM25.6091 55.6165C25.8335 55.6165 26.0182 55.5589 26.1631 55.4439C26.308 55.3288 26.4152 55.1776 26.4848 54.9901C26.5544 54.8026 26.5892 54.5994 26.5892 54.3807C26.5892 54.1619 26.5544 53.9581 26.4848 53.7692C26.4152 53.5803 26.308 53.4276 26.1631 53.3111C26.0182 53.1946 25.8335 53.1364 25.6091 53.1364C25.3847 53.1364 25.2 53.1946 25.0551 53.3111C24.9102 53.4276 24.803 53.5803 24.7334 53.7692C24.6638 53.9581 24.629 54.1619 24.629 54.3807C24.629 54.5994 24.6638 54.8026 24.7334 54.9901C24.803 55.1776 24.9102 55.3288 25.0551 55.4439C25.2 55.5589 25.3847 55.6165 25.6091 55.6165ZM29.1807 57.2955C28.9378 57.2955 28.729 57.2642 28.5542 57.2017C28.3795 57.1406 28.2339 57.0597 28.1175 56.9588C28.0024 56.8594 27.9108 56.7528 27.8426 56.6392L28.2432 56.358C28.2886 56.4176 28.3461 56.4858 28.4157 56.5625C28.4854 56.6406 28.5805 56.7081 28.7013 56.7649C28.8234 56.8232 28.9832 56.8523 29.1807 56.8523C29.4449 56.8523 29.6629 56.7884 29.8348 56.6605C30.0067 56.5327 30.0926 56.3324 30.0926 56.0597V55.3949H30.05C30.0131 55.4545 29.9605 55.5284 29.8923 55.6165C29.8256 55.7031 29.729 55.7805 29.6025 55.8487C29.4775 55.9155 29.3085 55.9489 29.0954 55.9489C28.8312 55.9489 28.594 55.8864 28.3838 55.7614C28.175 55.6364 28.0095 55.4545 27.8873 55.2159C27.7666 54.9773 27.7062 54.6875 27.7062 54.3466C27.7062 54.0114 27.7652 53.7195 27.8831 53.4709C28.001 53.2209 28.165 53.0277 28.3753 52.8913C28.5855 52.7536 28.8284 52.6847 29.104 52.6847C29.317 52.6847 29.4861 52.7202 29.6111 52.7912C29.7375 52.8608 29.8341 52.9403 29.9008 53.0298C29.969 53.1179 30.0216 53.1903 30.0585 53.2472H30.1096V52.7273H30.5954V56.0938C30.5954 56.375 30.5315 56.6037 30.4037 56.7798C30.2773 56.9574 30.1068 57.0874 29.8923 57.1697C29.6792 57.2536 29.442 57.2955 29.1807 57.2955ZM29.1636 55.4972C29.3653 55.4972 29.5358 55.451 29.675 55.3587C29.8142 55.2663 29.92 55.1335 29.9925 54.9602C30.0649 54.7869 30.1011 54.5795 30.1011 54.3381C30.1011 54.1023 30.0656 53.8942 29.9946 53.7138C29.9236 53.5334 29.8184 53.392 29.6792 53.2898C29.54 53.1875 29.3682 53.1364 29.1636 53.1364C28.9506 53.1364 28.773 53.1903 28.6309 53.2983C28.4903 53.4062 28.3845 53.5511 28.3135 53.733C28.2439 53.9148 28.2091 54.1165 28.2091 54.3381C28.2091 54.5653 28.2446 54.7663 28.3156 54.9411C28.3881 55.1143 28.4946 55.2507 28.6352 55.3501C28.7773 55.4482 28.9534 55.4972 29.1636 55.4972ZM31.5159 56V52.7273H32.0187V56H31.5159ZM31.7716 52.1818C31.6736 52.1818 31.589 52.1484 31.518 52.0817C31.4484 52.0149 31.4136 51.9347 31.4136 51.8409C31.4136 51.7472 31.4484 51.6669 31.518 51.6001C31.589 51.5334 31.6736 51.5 31.7716 51.5C31.8696 51.5 31.9534 51.5334 32.023 51.6001C32.094 51.6669 32.1295 51.7472 32.1295 51.8409C32.1295 51.9347 32.094 52.0149 32.023 52.0817C31.9534 52.1484 31.8696 52.1818 31.7716 52.1818ZM33.4426 54.0312V56H32.9397V52.7273H33.4255V53.2386H33.4681C33.5448 53.0724 33.6613 52.9389 33.8176 52.8381C33.9738 52.7358 34.1755 52.6847 34.4227 52.6847C34.6443 52.6847 34.8382 52.7301 35.0044 52.821C35.1705 52.9105 35.2998 53.0469 35.3921 53.2301C35.4845 53.4119 35.5306 53.642 35.5306 53.9205V56H35.0278V53.9545C35.0278 53.6974 34.961 53.4972 34.8275 53.3537C34.694 53.2088 34.5107 53.1364 34.2778 53.1364C34.1173 53.1364 33.9738 53.1712 33.8474 53.2408C33.7224 53.3104 33.6237 53.4119 33.5512 53.5455C33.4788 53.679 33.4426 53.8409 33.4426 54.0312ZM39.5603 52.7273V53.1534H37.8643V52.7273H39.5603ZM38.3586 51.9432H38.8614V55.0625C38.8614 55.2045 38.882 55.3111 38.9232 55.3821C38.9658 55.4517 39.0198 55.4986 39.0851 55.5227C39.1519 55.5455 39.2222 55.5568 39.2961 55.5568C39.3515 55.5568 39.3969 55.554 39.4324 55.5483C39.468 55.5412 39.4964 55.5355 39.5177 55.5312L39.6199 55.983C39.5858 55.9957 39.5383 56.0085 39.4772 56.0213C39.4161 56.0355 39.3387 56.0426 39.2449 56.0426C39.1029 56.0426 38.9637 56.0121 38.8273 55.951C38.6924 55.8899 38.5802 55.7969 38.4907 55.6719C38.4026 55.5469 38.3586 55.3892 38.3586 55.1989V51.9432ZM41.6111 56.0682C41.3156 56.0682 41.0564 55.9979 40.8334 55.8572C40.6118 55.7166 40.4385 55.5199 40.3135 55.267C40.1899 55.0142 40.1281 54.7187 40.1281 54.3807C40.1281 54.0398 40.1899 53.7422 40.3135 53.4879C40.4385 53.2337 40.6118 53.0362 40.8334 52.8956C41.0564 52.755 41.3156 52.6847 41.6111 52.6847C41.9065 52.6847 42.165 52.755 42.3866 52.8956C42.6096 53.0362 42.7829 53.2337 42.9065 53.4879C43.0315 53.7422 43.094 54.0398 43.094 54.3807C43.094 54.7187 43.0315 55.0142 42.9065 55.267C42.7829 55.5199 42.6096 55.7166 42.3866 55.8572C42.165 55.9979 41.9065 56.0682 41.6111 56.0682ZM41.6111 55.6165C41.8355 55.6165 42.0202 55.5589 42.165 55.4439C42.3099 55.3288 42.4172 55.1776 42.4868 54.9901C42.5564 54.8026 42.5912 54.5994 42.5912 54.3807C42.5912 54.1619 42.5564 53.9581 42.4868 53.7692C42.4172 53.5803 42.3099 53.4276 42.165 53.3111C42.0202 53.1946 41.8355 53.1364 41.6111 53.1364C41.3866 53.1364 41.202 53.1946 41.0571 53.3111C40.9122 53.4276 40.805 53.5803 40.7354 53.7692C40.6657 53.9581 40.6309 54.1619 40.6309 54.3807C40.6309 54.5994 40.6657 54.8026 40.7354 54.9901C40.805 55.1776 40.9122 55.3288 41.0571 55.4439C41.202 55.5589 41.3866 55.6165 41.6111 55.6165ZM48.0036 52.7273C47.9781 52.5114 47.8744 52.3438 47.6926 52.2244C47.5107 52.1051 47.2877 52.0455 47.0235 52.0455C46.8303 52.0455 46.6613 52.0767 46.5164 52.1392C46.373 52.2017 46.2607 52.2876 46.1798 52.397C46.1002 52.5064 46.0605 52.6307 46.0605 52.7699C46.0605 52.8864 46.0882 52.9865 46.1436 53.0703C46.2004 53.1527 46.2728 53.2216 46.3609 53.277C46.449 53.331 46.5413 53.3757 46.6379 53.4112C46.7345 53.4453 46.8232 53.473 46.9042 53.4943L47.3474 53.6136C47.461 53.6435 47.5874 53.6847 47.7267 53.7372C47.8673 53.7898 48.0015 53.8615 48.1294 53.9524C48.2586 54.0419 48.3651 54.157 48.449 54.2976C48.5328 54.4382 48.5747 54.6108 48.5747 54.8153C48.5747 55.0511 48.5129 55.2642 48.3893 55.4545C48.2671 55.6449 48.0882 55.7962 47.8524 55.9084C47.618 56.0206 47.3332 56.0767 46.998 56.0767C46.6855 56.0767 46.4149 56.0263 46.1862 55.9254C45.9589 55.8246 45.7799 55.6839 45.6492 55.5036C45.52 55.3232 45.4468 55.1136 45.4298 54.875H45.9752C45.9894 55.0398 46.0448 55.1761 46.1414 55.2841C46.2394 55.3906 46.363 55.4702 46.5122 55.5227C46.6627 55.5739 46.8247 55.5994 46.998 55.5994C47.1997 55.5994 47.3808 55.5668 47.5413 55.5014C47.7018 55.4347 47.8289 55.3423 47.9227 55.2244C48.0164 55.1051 48.0633 54.9659 48.0633 54.8068C48.0633 54.6619 48.0228 54.544 47.9419 54.4531C47.8609 54.3622 47.7544 54.2884 47.6222 54.2315C47.4901 54.1747 47.3474 54.125 47.194 54.0824L46.657 53.929C46.3161 53.831 46.0463 53.6911 45.8474 53.5092C45.6485 53.3274 45.5491 53.0895 45.5491 52.7955C45.5491 52.5511 45.6151 52.3381 45.7472 52.1562C45.8808 51.973 46.0597 51.831 46.2842 51.7301C46.51 51.6278 46.7622 51.5767 47.0406 51.5767C47.3218 51.5767 47.5718 51.6271 47.7906 51.728C48.0093 51.8274 48.1826 51.9638 48.3105 52.1371C48.4397 52.3104 48.5079 52.5071 48.515 52.7273H48.0036ZM50.3383 56.0767C50.1309 56.0767 49.9427 56.0376 49.7737 55.9595C49.6047 55.88 49.4704 55.7656 49.371 55.6165C49.2716 55.4659 49.2219 55.2841 49.2219 55.071C49.2219 54.8835 49.2588 54.7315 49.3327 54.6151C49.4065 54.4972 49.5052 54.4048 49.6288 54.3381C49.7524 54.2713 49.8888 54.2216 50.0379 54.1889C50.1885 54.1548 50.3398 54.1278 50.4917 54.108C50.6906 54.0824 50.8518 54.0632 50.9754 54.0504C51.1004 54.0362 51.1913 54.0128 51.2481 53.9801C51.3064 53.9474 51.3355 53.8906 51.3355 53.8097V53.7926C51.3355 53.5824 51.278 53.419 51.1629 53.3026C51.0493 53.1861 50.8767 53.1278 50.6452 53.1278C50.4051 53.1278 50.2169 53.1804 50.0805 53.2855C49.9442 53.3906 49.8483 53.5028 49.7929 53.6222L49.3156 53.4517C49.4008 53.2528 49.5145 53.098 49.6565 52.9872C49.8 52.875 49.9562 52.7969 50.1253 52.7528C50.2957 52.7074 50.4633 52.6847 50.6281 52.6847C50.7332 52.6847 50.854 52.6974 50.9903 52.723C51.1281 52.7472 51.2609 52.7976 51.3888 52.8743C51.518 52.951 51.6253 53.0668 51.7105 53.2216C51.7957 53.3764 51.8383 53.5838 51.8383 53.8438V56H51.3355V55.5568H51.3099C51.2758 55.6278 51.219 55.7038 51.1395 55.7848C51.0599 55.8658 50.9541 55.9347 50.822 55.9915C50.6899 56.0483 50.5287 56.0767 50.3383 56.0767ZM50.415 55.625C50.6139 55.625 50.7815 55.5859 50.9179 55.5078C51.0557 55.4297 51.1594 55.3288 51.229 55.2053C51.3 55.0817 51.3355 54.9517 51.3355 54.8153V54.3551C51.3142 54.3807 51.2673 54.4041 51.1949 54.4254C51.1238 54.4453 51.0415 54.4631 50.9477 54.4787C50.8554 54.4929 50.7652 54.5057 50.6771 54.517C50.5905 54.527 50.5202 54.5355 50.4662 54.5426C50.3355 54.5597 50.2133 54.5874 50.0997 54.6257C49.9875 54.6626 49.8966 54.7187 49.827 54.794C49.7588 54.8679 49.7247 54.9687 49.7247 55.0966C49.7247 55.2713 49.7893 55.4034 49.9186 55.4929C50.0493 55.581 50.2148 55.625 50.415 55.625ZM55.3151 52.7273L54.1048 56H53.5935L52.3833 52.7273H52.9287L53.8321 55.3352H53.8662L54.7696 52.7273H55.3151ZM57.2338 56.0682C56.9184 56.0682 56.6464 55.9986 56.4177 55.8594C56.1904 55.7188 56.015 55.5227 55.8914 55.2713C55.7693 55.0185 55.7082 54.7244 55.7082 54.3892C55.7082 54.054 55.7693 53.7585 55.8914 53.5028C56.015 53.2457 56.1869 53.0455 56.407 52.902C56.6286 52.7571 56.8872 52.6847 57.1826 52.6847C57.3531 52.6847 57.5214 52.7131 57.6876 52.7699C57.8538 52.8267 58.0051 52.919 58.1414 53.0469C58.2778 53.1733 58.3865 53.3409 58.4674 53.5497C58.5484 53.7585 58.5889 54.0156 58.5889 54.321V54.5341H56.0661V54.0994H58.0775C58.0775 53.9148 58.0406 53.75 57.9667 53.6051C57.8943 53.4602 57.7906 53.3459 57.6556 53.2621C57.5221 53.1783 57.3644 53.1364 57.1826 53.1364C56.9823 53.1364 56.809 53.1861 56.6627 53.2855C56.5178 53.3835 56.4063 53.5114 56.3282 53.669C56.2501 53.8267 56.211 53.9957 56.211 54.1761V54.4659C56.211 54.7131 56.2536 54.9226 56.3389 55.0945C56.4255 55.2649 56.5455 55.3949 56.699 55.4844C56.8524 55.5724 57.0306 55.6165 57.2338 55.6165C57.3659 55.6165 57.4852 55.598 57.5917 55.5611C57.6997 55.5227 57.7927 55.4659 57.8708 55.3906C57.949 55.3139 58.0093 55.2187 58.0519 55.1051L58.5377 55.2415C58.4866 55.4062 58.4007 55.5511 58.2799 55.6761C58.1592 55.7997 58.01 55.8963 57.8325 55.9659C57.6549 56.0341 57.4553 56.0682 57.2338 56.0682ZM61.1095 56V51.6364H62.5839C62.9262 51.6364 63.2061 51.6982 63.4234 51.8217C63.6421 51.9439 63.8041 52.1094 63.9092 52.3182C64.0143 52.527 64.0669 52.7599 64.0669 53.017C64.0669 53.2741 64.0143 53.5078 63.9092 53.718C63.8055 53.9283 63.645 54.0959 63.4276 54.2209C63.2103 54.3445 62.9319 54.4062 62.5924 54.4062H61.5356V53.9375H62.5754C62.8097 53.9375 62.998 53.897 63.14 53.8161C63.282 53.7351 63.385 53.6257 63.449 53.4879C63.5143 53.3487 63.547 53.1918 63.547 53.017C63.547 52.8423 63.5143 52.6861 63.449 52.5483C63.385 52.4105 63.2813 52.3026 63.1379 52.2244C62.9944 52.1449 62.8041 52.1051 62.5669 52.1051H61.6379V56H61.1095ZM64.8499 56V52.7273H65.3357V53.2216H65.3698C65.4294 53.0597 65.5374 52.9283 65.6936 52.8274C65.8499 52.7266 66.026 52.6761 66.222 52.6761C66.259 52.6761 66.3051 52.6768 66.3605 52.6783C66.4159 52.6797 66.4578 52.6818 66.4862 52.6847V53.196C66.4692 53.1918 66.4301 53.1854 66.3691 53.1768C66.3094 53.1669 66.2462 53.1619 66.1794 53.1619C66.0203 53.1619 65.8783 53.1953 65.7533 53.2621C65.6297 53.3274 65.5317 53.4183 65.4593 53.5348C65.3882 53.6499 65.3527 53.7812 65.3527 53.929V56H64.8499ZM68.3122 56.0682C68.0168 56.0682 67.7575 55.9979 67.5345 55.8572C67.3129 55.7166 67.1396 55.5199 67.0146 55.267C66.8911 55.0142 66.8293 54.7187 66.8293 54.3807C66.8293 54.0398 66.8911 53.7422 67.0146 53.4879C67.1396 53.2337 67.3129 53.0362 67.5345 52.8956C67.7575 52.755 68.0168 52.6847 68.3122 52.6847C68.6077 52.6847 68.8662 52.755 69.0878 52.8956C69.3108 53.0362 69.4841 53.2337 69.6077 53.4879C69.7327 53.7422 69.7952 54.0398 69.7952 54.3807C69.7952 54.7187 69.7327 55.0142 69.6077 55.267C69.4841 55.5199 69.3108 55.7166 69.0878 55.8572C68.8662 55.9979 68.6077 56.0682 68.3122 56.0682ZM68.3122 55.6165C68.5367 55.6165 68.7213 55.5589 68.8662 55.4439C69.0111 55.3288 69.1183 55.1776 69.1879 54.9901C69.2575 54.8026 69.2923 54.5994 69.2923 54.3807C69.2923 54.1619 69.2575 53.9581 69.1879 53.7692C69.1183 53.5803 69.0111 53.4276 68.8662 53.3111C68.7213 53.1946 68.5367 53.1364 68.3122 53.1364C68.0878 53.1364 67.9031 53.1946 67.7583 53.3111C67.6134 53.4276 67.5061 53.5803 67.4365 53.7692C67.3669 53.9581 67.3321 54.1619 67.3321 54.3807C67.3321 54.5994 67.3669 54.8026 67.4365 54.9901C67.5061 55.1776 67.6134 55.3288 67.7583 55.4439C67.9031 55.5589 68.0878 55.6165 68.3122 55.6165ZM72.0202 52.7273V53.1534H70.2559V52.7273H72.0202ZM70.7844 56V52.2756C70.7844 52.0881 70.8284 51.9318 70.9165 51.8068C71.0045 51.6818 71.1189 51.5881 71.2595 51.5256C71.4001 51.4631 71.5486 51.4318 71.7048 51.4318C71.8284 51.4318 71.9292 51.4418 72.0074 51.4616C72.0855 51.4815 72.1437 51.5 72.1821 51.517L72.0372 51.9517C72.0116 51.9432 71.9761 51.9325 71.9307 51.9197C71.8866 51.907 71.8284 51.9006 71.7559 51.9006C71.5898 51.9006 71.4697 51.9425 71.3959 52.0263C71.3234 52.1101 71.2872 52.233 71.2872 52.3949V56H70.7844ZM72.7249 56V52.7273H73.2277V56H72.7249ZM72.9806 52.1818C72.8825 52.1818 72.798 52.1484 72.727 52.0817C72.6574 52.0149 72.6226 51.9347 72.6226 51.8409C72.6226 51.7472 72.6574 51.6669 72.727 51.6001C72.798 51.5334 72.8825 51.5 72.9806 51.5C73.0786 51.5 73.1624 51.5334 73.232 51.6001C73.303 51.6669 73.3385 51.7472 73.3385 51.8409C73.3385 51.9347 73.303 52.0149 73.232 52.0817C73.1624 52.1484 73.0786 52.1818 72.9806 52.1818ZM74.6515 51.6364V56H74.1487V51.6364H74.6515ZM76.9447 56.0682C76.6294 56.0682 76.3573 55.9986 76.1286 55.8594C75.9014 55.7188 75.7259 55.5227 75.6024 55.2713C75.4802 55.0185 75.4191 54.7244 75.4191 54.3892C75.4191 54.054 75.4802 53.7585 75.6024 53.5028C75.7259 53.2457 75.8978 53.0455 76.118 52.902C76.3396 52.7571 76.5981 52.6847 76.8936 52.6847C77.064 52.6847 77.2323 52.7131 77.3985 52.7699C77.5647 52.8267 77.716 52.919 77.8524 53.0469C77.9887 53.1733 78.0974 53.3409 78.1784 53.5497C78.2593 53.7585 78.2998 54.0156 78.2998 54.321V54.5341H75.7771V54.0994H77.7884C77.7884 53.9148 77.7515 53.75 77.6776 53.6051C77.6052 53.4602 77.5015 53.3459 77.3666 53.2621C77.233 53.1783 77.0754 53.1364 76.8936 53.1364C76.6933 53.1364 76.52 53.1861 76.3737 53.2855C76.2288 53.3835 76.1173 53.5114 76.0392 53.669C75.961 53.8267 75.922 53.9957 75.922 54.1761V54.4659C75.922 54.7131 75.9646 54.9226 76.0498 55.0945C76.1365 55.2649 76.2565 55.3949 76.4099 55.4844C76.5633 55.5724 76.7416 55.6165 76.9447 55.6165C77.0768 55.6165 77.1961 55.598 77.3026 55.5611C77.4106 55.5227 77.5036 55.4659 77.5818 55.3906C77.6599 55.3139 77.7203 55.2187 77.7629 55.1051L78.2487 55.2415C78.1975 55.4062 78.1116 55.5511 77.9909 55.6761C77.8701 55.7997 77.721 55.8963 77.5434 55.9659C77.3659 56.0341 77.1663 56.0682 76.9447 56.0682Z" fill="black"/>
<path id="Invite Friends to Event" d="M102.475 51.6364V56H101.946V51.6364H102.475ZM103.969 54.0312V56H103.466V52.7273H103.952V53.2386H103.994C104.071 53.0724 104.188 52.9389 104.344 52.8381C104.5 52.7358 104.702 52.6847 104.949 52.6847C105.171 52.6847 105.365 52.7301 105.531 52.821C105.697 52.9105 105.826 53.0469 105.919 53.2301C106.011 53.4119 106.057 53.642 106.057 53.9205V56H105.554V53.9545C105.554 53.6974 105.487 53.4972 105.354 53.3537C105.22 53.2088 105.037 53.1364 104.804 53.1364C104.644 53.1364 104.5 53.1712 104.374 53.2408C104.249 53.3104 104.15 53.4119 104.078 53.5455C104.005 53.679 103.969 53.8409 103.969 54.0312ZM109.535 52.7273L108.325 56H107.813L106.603 52.7273H107.148L108.052 55.3352H108.086L108.989 52.7273H109.535ZM110.199 56V52.7273H110.701V56H110.199ZM110.454 52.1818C110.356 52.1818 110.272 52.1484 110.201 52.0817C110.131 52.0149 110.096 51.9347 110.096 51.8409C110.096 51.7472 110.131 51.6669 110.201 51.6001C110.272 51.5334 110.356 51.5 110.454 51.5C110.552 51.5 110.636 51.5334 110.706 51.6001C110.777 51.6669 110.812 51.7472 110.812 51.8409C110.812 51.9347 110.777 52.0149 110.706 52.0817C110.636 52.1484 110.552 52.1818 110.454 52.1818ZM113.046 52.7273V53.1534H111.35V52.7273H113.046ZM111.844 51.9432H112.347V55.0625C112.347 55.2045 112.367 55.3111 112.409 55.3821C112.451 55.4517 112.505 55.4986 112.57 55.5227C112.637 55.5455 112.708 55.5568 112.781 55.5568C112.837 55.5568 112.882 55.554 112.918 55.5483C112.953 55.5412 112.982 55.5355 113.003 55.5312L113.105 55.983C113.071 55.9957 113.024 56.0085 112.963 56.0213C112.901 56.0355 112.824 56.0426 112.73 56.0426C112.588 56.0426 112.449 56.0121 112.313 55.951C112.178 55.8899 112.066 55.7969 111.976 55.6719C111.888 55.5469 111.844 55.3892 111.844 55.1989V51.9432ZM115.139 56.0682C114.824 56.0682 114.552 55.9986 114.323 55.8594C114.096 55.7188 113.92 55.5227 113.797 55.2713C113.675 55.0185 113.613 54.7244 113.613 54.3892C113.613 54.054 113.675 53.7585 113.797 53.5028C113.92 53.2457 114.092 53.0455 114.312 52.902C114.534 52.7571 114.792 52.6847 115.088 52.6847C115.258 52.6847 115.427 52.7131 115.593 52.7699C115.759 52.8267 115.91 52.919 116.047 53.0469C116.183 53.1733 116.292 53.3409 116.373 53.5497C116.454 53.7585 116.494 54.0156 116.494 54.321V54.5341H113.971V54.0994H115.983C115.983 53.9148 115.946 53.75 115.872 53.6051C115.8 53.4602 115.696 53.3459 115.561 53.2621C115.427 53.1783 115.27 53.1364 115.088 53.1364C114.888 53.1364 114.714 53.1861 114.568 53.2855C114.423 53.3835 114.312 53.5114 114.233 53.669C114.155 53.8267 114.116 53.9957 114.116 54.1761V54.4659C114.116 54.7131 114.159 54.9226 114.244 55.0945C114.331 55.2649 114.451 55.3949 114.604 55.4844C114.758 55.5724 114.936 55.6165 115.139 55.6165C115.271 55.6165 115.39 55.598 115.497 55.5611C115.605 55.5227 115.698 55.4659 115.776 55.3906C115.854 55.3139 115.915 55.2187 115.957 55.1051L116.443 55.2415C116.392 55.4062 116.306 55.5511 116.185 55.6761C116.064 55.7997 115.915 55.8963 115.738 55.9659C115.56 56.0341 115.361 56.0682 115.139 56.0682ZM119.015 56V51.6364H121.631V52.1051H119.543V53.5795H121.435V54.0483H119.543V56H119.015ZM122.433 56V52.7273H122.919V53.2216H122.953C123.012 53.0597 123.12 52.9283 123.277 52.8274C123.433 52.7266 123.609 52.6761 123.805 52.6761C123.842 52.6761 123.888 52.6768 123.944 52.6783C123.999 52.6797 124.041 52.6818 124.069 52.6847V53.196C124.052 53.1918 124.013 53.1854 123.952 53.1768C123.892 53.1669 123.829 53.1619 123.762 53.1619C123.603 53.1619 123.461 53.1953 123.336 53.2621C123.213 53.3274 123.115 53.4183 123.042 53.5348C122.971 53.6499 122.936 53.7812 122.936 53.929V56H122.433ZM124.665 56V52.7273H125.168V56H124.665ZM124.921 52.1818C124.823 52.1818 124.738 52.1484 124.667 52.0817C124.598 52.0149 124.563 51.9347 124.563 51.8409C124.563 51.7472 124.598 51.6669 124.667 51.6001C124.738 51.5334 124.823 51.5 124.921 51.5C125.019 51.5 125.103 51.5334 125.172 51.6001C125.243 51.6669 125.279 51.7472 125.279 51.8409C125.279 51.9347 125.243 52.0149 125.172 52.0817C125.103 52.1484 125.019 52.1818 124.921 52.1818ZM127.461 56.0682C127.146 56.0682 126.874 55.9986 126.645 55.8594C126.418 55.7188 126.243 55.5227 126.119 55.2713C125.997 55.0185 125.936 54.7244 125.936 54.3892C125.936 54.054 125.997 53.7585 126.119 53.5028C126.243 53.2457 126.414 53.0455 126.635 52.902C126.856 52.7571 127.115 52.6847 127.41 52.6847C127.581 52.6847 127.749 52.7131 127.915 52.7699C128.081 52.8267 128.233 52.919 128.369 53.0469C128.505 53.1733 128.614 53.3409 128.695 53.5497C128.776 53.7585 128.816 54.0156 128.816 54.321V54.5341H126.294V54.0994H128.305C128.305 53.9148 128.268 53.75 128.194 53.6051C128.122 53.4602 128.018 53.3459 127.883 53.2621C127.75 53.1783 127.592 53.1364 127.41 53.1364C127.21 53.1364 127.037 53.1861 126.89 53.2855C126.745 53.3835 126.634 53.5114 126.556 53.669C126.478 53.8267 126.439 53.9957 126.439 54.1761V54.4659C126.439 54.7131 126.481 54.9226 126.566 55.0945C126.653 55.2649 126.773 55.3949 126.926 55.4844C127.08 55.5724 127.258 55.6165 127.461 55.6165C127.593 55.6165 127.713 55.598 127.819 55.5611C127.927 55.5227 128.02 55.4659 128.098 55.3906C128.176 55.3139 128.237 55.2187 128.279 55.1051L128.765 55.2415C128.714 55.4062 128.628 55.5511 128.507 55.6761C128.387 55.7997 128.238 55.8963 128.06 55.9659C127.882 56.0341 127.683 56.0682 127.461 56.0682ZM130.084 54.0312V56H129.581V52.7273H130.067V53.2386H130.11C130.186 53.0724 130.303 52.9389 130.459 52.8381C130.615 52.7358 130.817 52.6847 131.064 52.6847C131.286 52.6847 131.48 52.7301 131.646 52.821C131.812 52.9105 131.941 53.0469 132.034 53.2301C132.126 53.4119 132.172 53.642 132.172 53.9205V56H131.669V53.9545C131.669 53.6974 131.603 53.4972 131.469 53.3537C131.336 53.2088 131.152 53.1364 130.919 53.1364C130.759 53.1364 130.615 53.1712 130.489 53.2408C130.364 53.3104 130.265 53.4119 130.193 53.5455C130.12 53.679 130.084 53.8409 130.084 54.0312ZM134.327 56.0682C134.054 56.0682 133.813 55.9993 133.605 55.8615C133.396 55.7223 133.232 55.5263 133.115 55.2734C132.997 55.0192 132.938 54.7188 132.938 54.3722C132.938 54.0284 132.997 53.7301 133.115 53.4773C133.232 53.2244 133.396 53.0291 133.607 52.8913C133.817 52.7536 134.06 52.6847 134.335 52.6847C134.548 52.6847 134.717 52.7202 134.84 52.7912C134.965 52.8608 135.061 52.9403 135.126 53.0298C135.193 53.1179 135.244 53.1903 135.281 53.2472H135.324V51.6364H135.827V56H135.341V55.4972H135.281C135.244 55.5568 135.192 55.6321 135.124 55.723C135.056 55.8125 134.958 55.8928 134.832 55.9638C134.705 56.0334 134.537 56.0682 134.327 56.0682ZM134.395 55.6165C134.597 55.6165 134.767 55.5639 134.906 55.4588C135.046 55.3523 135.151 55.2053 135.224 55.0178C135.296 54.8288 135.333 54.6108 135.333 54.3636C135.333 54.1193 135.297 53.9055 135.226 53.7223C135.155 53.5376 135.05 53.3942 134.911 53.2919C134.771 53.1882 134.6 53.1364 134.395 53.1364C134.182 53.1364 134.004 53.1911 133.862 53.3004C133.722 53.4084 133.616 53.5554 133.545 53.7415C133.475 53.9261 133.441 54.1335 133.441 54.3636C133.441 54.5966 133.476 54.8082 133.547 54.9986C133.619 55.1875 133.726 55.3381 133.867 55.4503C134.009 55.5611 134.185 55.6165 134.395 55.6165ZM139.136 53.4602L138.684 53.5881C138.656 53.5128 138.614 53.4396 138.558 53.3686C138.504 53.2962 138.431 53.2365 138.337 53.1896C138.243 53.1428 138.123 53.1193 137.977 53.1193C137.776 53.1193 137.61 53.1655 137.476 53.2578C137.344 53.3487 137.278 53.4645 137.278 53.6051C137.278 53.7301 137.323 53.8288 137.414 53.9013C137.505 53.9737 137.647 54.0341 137.84 54.0824L138.326 54.2017C138.619 54.2727 138.837 54.3814 138.98 54.5277C139.124 54.6726 139.195 54.8594 139.195 55.0881C139.195 55.2756 139.142 55.4432 139.034 55.5909C138.927 55.7386 138.778 55.8551 138.586 55.9403C138.394 56.0256 138.171 56.0682 137.917 56.0682C137.583 56.0682 137.307 55.9957 137.088 55.8509C136.869 55.706 136.731 55.4943 136.673 55.2159L137.15 55.0966C137.195 55.2727 137.281 55.4048 137.408 55.4929C137.536 55.581 137.703 55.625 137.909 55.625C138.143 55.625 138.329 55.5753 138.467 55.4759C138.606 55.375 138.676 55.2543 138.676 55.1136C138.676 55 138.636 54.9048 138.556 54.8281C138.477 54.75 138.355 54.6918 138.19 54.6534L137.644 54.5256C137.345 54.4545 137.124 54.3445 136.984 54.1953C136.845 54.0447 136.775 53.8565 136.775 53.6307C136.775 53.446 136.827 53.2827 136.931 53.1406C137.036 52.9986 137.178 52.8871 137.359 52.8061C137.541 52.7251 137.747 52.6847 137.977 52.6847C138.301 52.6847 138.555 52.7557 138.74 52.8977C138.926 53.0398 139.058 53.2273 139.136 53.4602ZM143.063 52.7273V53.1534H141.367V52.7273H143.063ZM141.862 51.9432H142.364V55.0625C142.364 55.2045 142.385 55.3111 142.426 55.3821C142.469 55.4517 142.523 55.4986 142.588 55.5227C142.655 55.5455 142.725 55.5568 142.799 55.5568C142.854 55.5568 142.9 55.554 142.935 55.5483C142.971 55.5412 142.999 55.5355 143.021 55.5312L143.123 55.983C143.089 55.9957 143.041 56.0085 142.98 56.0213C142.919 56.0355 142.842 56.0426 142.748 56.0426C142.606 56.0426 142.467 56.0121 142.33 55.951C142.195 55.8899 142.083 55.7969 141.994 55.6719C141.906 55.5469 141.862 55.3892 141.862 55.1989V51.9432ZM145.114 56.0682C144.819 56.0682 144.559 55.9979 144.336 55.8572C144.115 55.7166 143.941 55.5199 143.816 55.267C143.693 55.0142 143.631 54.7187 143.631 54.3807C143.631 54.0398 143.693 53.7422 143.816 53.4879C143.941 53.2337 144.115 53.0362 144.336 52.8956C144.559 52.755 144.819 52.6847 145.114 52.6847C145.409 52.6847 145.668 52.755 145.89 52.8956C146.113 53.0362 146.286 53.2337 146.409 53.4879C146.534 53.7422 146.597 54.0398 146.597 54.3807C146.597 54.7187 146.534 55.0142 146.409 55.267C146.286 55.5199 146.113 55.7166 145.89 55.8572C145.668 55.9979 145.409 56.0682 145.114 56.0682ZM145.114 55.6165C145.338 55.6165 145.523 55.5589 145.668 55.4439C145.813 55.3288 145.92 55.1776 145.99 54.9901C146.059 54.8026 146.094 54.5994 146.094 54.3807C146.094 54.1619 146.059 53.9581 145.99 53.7692C145.92 53.5803 145.813 53.4276 145.668 53.3111C145.523 53.1946 145.338 53.1364 145.114 53.1364C144.89 53.1364 144.705 53.1946 144.56 53.3111C144.415 53.4276 144.308 53.5803 144.238 53.7692C144.169 53.9581 144.134 54.1619 144.134 54.3807C144.134 54.5994 144.169 54.8026 144.238 54.9901C144.308 55.1776 144.415 55.3288 144.56 55.4439C144.705 55.5589 144.89 55.6165 145.114 55.6165ZM149.12 56V51.6364H151.754V52.1051H149.649V53.5795H151.617V54.0483H149.649V55.5312H151.788V56H149.12ZM155.314 52.7273L154.104 56H153.593L152.382 52.7273H152.928L153.831 55.3352H153.865L154.769 52.7273H155.314ZM157.233 56.0682C156.917 56.0682 156.645 55.9986 156.417 55.8594C156.189 55.7188 156.014 55.5227 155.89 55.2713C155.768 55.0185 155.707 54.7244 155.707 54.3892C155.707 54.054 155.768 53.7585 155.89 53.5028C156.014 53.2457 156.186 53.0455 156.406 52.902C156.628 52.7571 156.886 52.6847 157.182 52.6847C157.352 52.6847 157.52 52.7131 157.687 52.7699C157.853 52.8267 158.004 52.919 158.14 53.0469C158.277 53.1733 158.385 53.3409 158.466 53.5497C158.547 53.7585 158.588 54.0156 158.588 54.321V54.5341H156.065V54.0994H158.077C158.077 53.9148 158.04 53.75 157.966 53.6051C157.893 53.4602 157.79 53.3459 157.655 53.2621C157.521 53.1783 157.363 53.1364 157.182 53.1364C156.981 53.1364 156.808 53.1861 156.662 53.2855C156.517 53.3835 156.405 53.5114 156.327 53.669C156.249 53.8267 156.21 53.9957 156.21 54.1761V54.4659C156.21 54.7131 156.253 54.9226 156.338 55.0945C156.425 55.2649 156.545 55.3949 156.698 55.4844C156.851 55.5724 157.03 55.6165 157.233 55.6165C157.365 55.6165 157.484 55.598 157.591 55.5611C157.699 55.5227 157.792 55.4659 157.87 55.3906C157.948 55.3139 158.008 55.2187 158.051 55.1051L158.537 55.2415C158.486 55.4062 158.4 55.5511 158.279 55.6761C158.158 55.7997 158.009 55.8963 157.831 55.9659C157.654 56.0341 157.454 56.0682 157.233 56.0682ZM159.856 54.0312V56H159.353V52.7273H159.839V53.2386H159.881C159.958 53.0724 160.074 52.9389 160.231 52.8381C160.387 52.7358 160.589 52.6847 160.836 52.6847C161.057 52.6847 161.251 52.7301 161.417 52.821C161.584 52.9105 161.713 53.0469 161.805 53.2301C161.898 53.4119 161.944 53.642 161.944 53.9205V56H161.441V53.9545C161.441 53.6974 161.374 53.4972 161.241 53.3537C161.107 53.2088 160.924 53.1364 160.691 53.1364C160.53 53.1364 160.387 53.1712 160.26 53.2408C160.135 53.3104 160.037 53.4119 159.964 53.5455C159.892 53.679 159.856 53.8409 159.856 54.0312ZM164.286 52.7273V53.1534H162.59V52.7273H164.286ZM163.084 51.9432H163.587V55.0625C163.587 55.2045 163.608 55.3111 163.649 55.3821C163.691 55.4517 163.745 55.4986 163.811 55.5227C163.877 55.5455 163.948 55.5568 164.022 55.5568C164.077 55.5568 164.123 55.554 164.158 55.5483C164.194 55.5412 164.222 55.5355 164.243 55.5312L164.346 55.983C164.311 55.9957 164.264 56.0085 164.203 56.0213C164.142 56.0355 164.064 56.0426 163.971 56.0426C163.828 56.0426 163.689 56.0121 163.553 55.951C163.418 55.8899 163.306 55.7969 163.216 55.6719C163.128 55.5469 163.084 55.3892 163.084 55.1989V51.9432Z" fill="black"/>
<g id="ic:baseline-whatsapp" clip-path="url(#clip0_7_17)">
<path id="Vector_2" d="M98.35 51.6366C98.0444 51.328 97.6804 51.0832 97.2792 50.9167C96.878 50.7501 96.4477 50.6651 96.0133 50.6666C94.1933 50.6666 92.71 52.15 92.71 53.97C92.71 54.5533 92.8633 55.12 93.15 55.62L92.6833 57.3333L94.4333 56.8733C94.9167 57.1366 95.46 57.2766 96.0133 57.2766C97.8333 57.2766 99.3167 55.7933 99.3167 53.9733C99.3167 53.09 98.9733 52.26 98.35 51.6366ZM96.0133 56.7166C95.52 56.7166 95.0367 56.5833 94.6133 56.3333L94.5133 56.2733L93.4733 56.5466L93.75 55.5333L93.6833 55.43C93.4093 54.9923 93.2637 54.4864 93.2633 53.97C93.2633 52.4566 94.4967 51.2233 96.01 51.2233C96.7433 51.2233 97.4333 51.51 97.95 52.03C98.2058 52.2846 98.4086 52.5875 98.5465 52.9211C98.6844 53.2547 98.7547 53.6123 98.7534 53.9733C98.76 55.4866 97.5267 56.7166 96.0133 56.7166ZM97.52 54.6633C97.4367 54.6233 97.03 54.4233 96.9567 54.3933C96.88 54.3666 96.8267 54.3533 96.77 54.4333C96.7133 54.5166 96.5567 54.7033 96.51 54.7566C96.4633 54.8133 96.4133 54.82 96.33 54.7766C96.2467 54.7366 95.98 54.6466 95.6667 54.3666C95.42 54.1466 95.2567 53.8766 95.2067 53.7933C95.16 53.71 95.2 53.6666 95.2433 53.6233C95.28 53.5866 95.3267 53.5266 95.3667 53.48C95.4067 53.4333 95.4233 53.3966 95.45 53.3433C95.4767 53.2866 95.4633 53.24 95.4433 53.2C95.4233 53.16 95.2567 52.7533 95.19 52.5866C95.1233 52.4266 95.0533 52.4466 95.0033 52.4433H94.8433C94.7867 52.4433 94.7 52.4633 94.6233 52.5466C94.55 52.63 94.3367 52.83 94.3367 53.2366C94.3367 53.6433 94.6333 54.0366 94.6733 54.09C94.7133 54.1466 95.2567 54.98 96.0833 55.3366C96.28 55.4233 96.4333 55.4733 96.5533 55.51C96.75 55.5733 96.93 55.5633 97.0733 55.5433C97.2333 55.52 97.5633 55.3433 97.63 55.15C97.7 54.9566 97.7 54.7933 97.6767 54.7566C97.6533 54.72 97.6033 54.7033 97.52 54.6633Z" fill="black"/>
</g>
</g>
</g>
<defs>
<clipPath id="clip0_7_17">
<rect width="8" height="8" fill="white" transform="translate(92 50)"/>
</clipPath>
</defs>
</svg>
