<svg id="Layer_1" data-name="Layer 1" xmlns="http://www.w3.org/2000/svg" viewBox="0 0 92.32 100"><defs><style>.cls-1{fill:none;stroke:#e0d0bc;stroke-linecap:round;stroke-linejoin:round;stroke-width:4px;}</style></defs><title>branding1</title><path id="Layer-1" class="cls-1" d="M50.16,87.31H91.28a3,3,0,0,0,3-3V76.78A10.13,10.13,0,0,0,84.18,66.67H72c-12.74,0-10.88-8.42-10.88-15.56,0-4.94,2.77-8.62,5.6-12.41a22.08,22.08,0,1,0-33.16,0c2.83,3.79,5.6,7.47,5.6,12.41,0,7.14,1.86,15.56-10.88,15.56H16.14A10.13,10.13,0,0,0,6,76.78v7.51a3,3,0,0,0,3,3Z" transform="translate(-4 0)"/><path id="Layer-2" class="cls-1" d="M13.57,67H86.74a10.12,10.12,0,0,1,7.58,9.78v7.51a3,3,0,0,1-3,3H9a3,3,0,0,1-3-3V76.78A10.13,10.13,0,0,1,13.57,67Z" transform="translate(-4 0)"/><path id="Layer-3" class="cls-1" d="M11,87.89H87.29V93a5,5,0,0,1-5,5H16.07A5.06,5.06,0,0,1,11,93Z" transform="translate(-4 0)"/></svg>