<svg id="Capa_1" data-name="Capa 1" xmlns="http://www.w3.org/2000/svg" viewBox="0 0 59.39 52"><defs><style>.cls-1{fill:#e0d0bc;}.cls-2{fill:#3d4451;}.cls-3{fill:#26b999;}.cls-4{fill:#fff;}</style></defs><title>portfolio1</title><polygon class="cls-1" points="25 7 20 0 0 0 0 7 0 51 58 51 58 14 30 14 25 7"/><polygon class="cls-2" points="30 14 58 14 58 7 25 7 30 14"/><circle class="cls-3" cx="47.39" cy="40" r="12"/><path class="cls-4" d="M54,37.87a1,1,0,0,0-1.39.25l-5.6,8L43,42.92a1,1,0,0,0-1.4.14,1,1,0,0,0,.14,1.41l4.78,3.93a1.05,1.05,0,0,0,.64.22h.13A1,1,0,0,0,48,48.2l6.21-8.93A1,1,0,0,0,54,37.87Z" transform="translate(0 -3.69)"/></svg>