<svg id="Layer_1" data-name="Layer 1" xmlns="http://www.w3.org/2000/svg" viewBox="0 0 483.84 483.84"><defs><style>.cls-1{fill:#e0d0bc;}.cls-2{fill:none;}</style></defs><title>sequrity2</title><g id="Layer_1-2" data-name="Layer_1"><path class="cls-1" d="M241.92,125a116.87,116.87,0,1,1-82.65,34.23A116.51,116.51,0,0,1,241.92,125Zm74.5,42.38a105.36,105.36,0,1,0,30.86,74.5A105,105,0,0,0,316.42,167.42Z"/><path class="cls-1" d="M243.35,89,282,60.21l5.48-4.07,3.07,6.09,22.52,44.61,47.61-7.5,6.72-1-.1,6.81-.8,50,45.64,15.49,6.46,2.2-3.27,6-23.92,43.86,33.21,34.93,4.71,4.94-5.68,3.79L382.11,294l13.18,46.38,1.86,6.55-6.81.71-49.67,5.24L330.8,400l-1.4,6.68-6.34-2.52L276.63,385.7,246,422.88l-4.35,5.27L237.17,423l-32.52-37.91-44.43,18.67-6.3,2.65-1.53-6.67L141.21,351l-48-4.12-6.83-.58,1.75-6.62,12.72-48.32L60.28,265.44l-5.75-3.67,4.6-5,33.72-36.86L69,178l-3.37-5.91L72,169.77l47-17-1.7-48.16-.24-6.83,6.74.93,49.52,6.81,20.87-43.42,3-6.16,5.54,4,40.67,29Zm40-15.47-36.55,27.19-3.35,2.49-3.4-2.43-38.52-27.5-19.73,41L180,118.07l-4.12-.56L129,111.05l1.61,45.52.15,4.18-3.95,1.42-44.5,16.07,22.59,39.58,2.06,3.61-2.82,3.09L72.19,259.44,110.57,284l3.54,2.26-1.07,4L101,336l45.36,3.89,4.18.36.95,4.1,10.58,46.1,42-17.64,3.85-1.62,2.74,3.19,30.81,35.91,29-35.13,2.66-3.23L277,373.5,321,391l9.33-44.58.86-4.1,4.18-.44,47-5L369.9,293.08l-1.14-4,3.48-2.32,39.37-26.26-31.38-33-2.89-3,2-3.67L402,179.24,358.87,164.6l-4-1.34.07-4.2.75-47.32-45,7.09-4.12.65-1.89-3.73L283.39,73.5Z"/><path class="cls-1" d="M186.06,241.51a5.76,5.76,0,0,0-8.15,8.15l33.28,33.28h0a5.76,5.76,0,0,0,8.15,0l0,0,81.39-81.38a5.76,5.76,0,1,0-8.15-8.15l-77.35,77.35-29.2-29.21Z"/></g><rect class="cls-2" width="483.84" height="483.84"/></svg>