<svg id="Layer_1" data-name="Layer 1" xmlns="http://www.w3.org/2000/svg" viewBox="0 0 19.99 17.06"><defs><style>.cls-1{fill:#e0d0bc;}</style></defs><title>share1</title><path class="cls-1" d="M14.5,15a2,2,0,1,0-2-2l-1.9.87a2,2,0,0,0-1.1-.33,2,2,0,0,0,0,4,1.86,1.86,0,0,0,.92-.24l2.1,1a2,2,0,1,0,1.76-2.22,2,2,0,0,0-1,.38l-1.75-.8,1.91-.88A2,2,0,0,0,14.5,15Zm3.92-7.78A7,7,0,0,0,5.06,9.11a4,4,0,0,0-.38,7.66,1.13,1.13,0,0,0,.32.05,1,1,0,0,0,.32-2A2,2,0,0,1,6,11a1,1,0,0,0,1-1,5,5,0,0,1,9.73-1.61,1,1,0,0,0,.78.67,3,3,0,0,1,1,5.53,1,1,0,1,0,1,1.74,5,5,0,0,0-1.09-9.11Z" transform="translate(-2.01 -3.01)"/></svg>