<?xml version="1.0" encoding="UTF-8"?>
<svg id="Layer_1" data-name="Layer 1" xmlns="http://www.w3.org/2000/svg" xmlns:xlink="http://www.w3.org/1999/xlink" viewBox="0 0 48 48">
  <defs>
    <style>
      .cls-1 {
        fill: url(#linear-gradient-2);
      }

      .cls-2 {
        fill: url(#linear-gradient-6);
      }

      .cls-3 {
        fill: url(#linear-gradient-5);
      }

      .cls-4 {
        fill: url(#linear-gradient-7);
      }

      .cls-5 {
        fill: url(#linear-gradient-9);
      }

      .cls-6 {
        fill: url(#linear-gradient-3);
      }

      .cls-7 {
        fill: url(#linear-gradient);
      }

      .cls-8 {
        fill: url(#linear-gradient-4);
      }

      .cls-9 {
        fill: url(#linear-gradient-8);
      }
    </style>
    <linearGradient id="linear-gradient" x1="13.551" y1="7.416" x2="30.978" y2="33.709" gradientUnits="userSpaceOnUse">
      <stop offset="0" stop-color="#3e4154"/>
      <stop offset="1" stop-color="#1b2129"/>
    </linearGradient>
    <linearGradient id="linear-gradient-2" x1="24" y1="30.146" x2="24" y2="46.561" gradientUnits="userSpaceOnUse">
      <stop offset="0" stop-color="#e85155"/>
      <stop offset="1" stop-color="#c21d2c"/>
    </linearGradient>
    <linearGradient id="linear-gradient-3" y1="27.777" x2="24" y2="35.115" xlink:href="#linear-gradient-2"/>
    <linearGradient id="linear-gradient-4" x1="20" y1="29.5" x2="28" y2="29.5" gradientUnits="userSpaceOnUse">
      <stop offset="0" stop-color="#f1d2bd"/>
      <stop offset="1" stop-color="#feb592"/>
    </linearGradient>
    <linearGradient id="linear-gradient-5" x1="24" y1="11" x2="24" y2="29" gradientUnits="userSpaceOnUse">
      <stop offset="0" stop-color="#f1d2bd"/>
      <stop offset=".314" stop-color="#f2cfb9"/>
      <stop offset=".608" stop-color="#f5c7ad"/>
      <stop offset=".894" stop-color="#fbbb9b"/>
      <stop offset="1" stop-color="#feb592"/>
    </linearGradient>
    <linearGradient id="linear-gradient-6" x1="37.293" y1="32.293" x2="41.12" y2="36.12" gradientUnits="userSpaceOnUse">
      <stop offset="0" stop-color="#f0f2f2"/>
      <stop offset="1" stop-color="#cacfd0"/>
    </linearGradient>
    <linearGradient id="linear-gradient-7" x1="6.88" y1="1.88" x2="10.707" y2="5.707" xlink:href="#linear-gradient-6"/>
    <linearGradient id="linear-gradient-8" x1="4.714" y1="30.127" x2="12.323" y2="37.736" xlink:href="#linear-gradient-6"/>
    <linearGradient id="linear-gradient-9" x1="35.499" y1=".086" x2="42.914" y2="7.501" xlink:href="#linear-gradient-6"/>
  </defs>
  <path class="cls-7" d="m35.839,33H12.161c-.515,0-.942-.4-.976-.914l-.226-3.457c-.106-1.735.342-3.389,1.299-4.788.634-.927.969-2.023.969-3.169,0-.339-.032-.682-.094-1.016l-.544-3.038c-.131-.646-.171-1.21-.121-1.751.411-6.083,5.477-10.867,11.532-10.867s11.121,4.784,11.534,10.891c.048.517.008,1.08-.127,1.749l-.538,3.01c-.063.341-.095.683-.095,1.023,0,1.146.335,2.242.969,3.169.956,1.398,1.405,3.053,1.299,4.784l-.226,3.46c-.034.514-.461.914-.976.914Z"/>
  <path class="cls-1" d="m13.961,31.442c-2.239.526-4.016,2.208-4.646,4.415l-1.65,5.782c-.767,2.691,1.251,5.361,4.037,5.361h24.598c2.786,0,4.804-2.67,4.037-5.361l-1.65-5.782c-.631-2.208-2.407-3.889-4.646-4.415l-10.039-2.313-10.039,2.313Z"/>
  <path class="cls-6" d="m29.974,30.506l-5.974-1.376-5.974,1.376c.257,3.076,2.831,5.494,5.974,5.494s5.717-2.418,5.974-5.494Z"/>
  <path class="cls-8" d="m28,25v5c0,2.209-1.791,4-4,4h0c-2.209,0-4-1.791-4-4v-5h8Z"/>
  <path class="cls-3" d="m16.003,16.485c-.04-.538.37-1.003.909-1.031,2.053-.104,6.783-.754,9.003-4.454,0,0,1.682,3.364,5.361,4.309.452.116.757.537.722,1.002l.002,3.208c.002,2.654-1.052,5.201-2.929,7.078l-.842.842c-1,1-2.357,1.562-3.771,1.562h-.915c-1.414,0-2.771-.562-3.771-1.562l-.842-.842c-1.877-1.877-2.931-4.424-2.929-7.078l.002-3.034Z"/>
  <path class="cls-2" d="m39,37h-4c-.553,0-1-.448-1-1s.447-1,1-1h4c.552,0,1-.449,1-1v-4c0-.552.447-1,1-1s1,.448,1,1v4c0,1.654-1.346,3-3,3Z"/>
  <path class="cls-4" d="m7,9c-.553,0-1-.448-1-1v-4c0-1.654,1.346-3,3-3h4c.553,0,1,.448,1,1s-.447,1-1,1h-4c-.552,0-1,.449-1,1v4c0,.552-.447,1-1,1Z"/>
  <path class="cls-9" d="m13,37h-4c-1.654,0-3-1.346-3-3v-4c0-.552.447-1,1-1s1,.448,1,1v4c0,.551.448,1,1,1h4c.553,0,1,.448,1,1s-.447,1-1,1Z"/>
  <path class="cls-5" d="m41,9c-.553,0-1-.448-1-1v-4c0-.551-.448-1-1-1h-4c-.553,0-1-.448-1-1s.447-1,1-1h4c1.654,0,3,1.346,3,3v4c0,.552-.447,1-1,1Z"/>
</svg>