<svg id="Layer_1" data-name="Layer 1" xmlns="http://www.w3.org/2000/svg" xmlns:xlink="http://www.w3.org/1999/xlink" viewBox="0 0 256 256"><defs><style>.cls-1{fill:url(#linear-gradient);}.cls-2{fill:url(#linear-gradient-2);}.cls-3{fill:url(#linear-gradient-3);}.cls-4{fill:url(#linear-gradient-4);}.cls-5{fill:url(#linear-gradient-5);}.cls-6{fill:url(#linear-gradient-6);}.cls-7{fill:url(#linear-gradient-7);}.cls-8{fill:url(#linear-gradient-8);}.cls-9{fill:url(#linear-gradient-9);}.cls-10{fill:url(#linear-gradient-10);}.cls-11{fill:url(#linear-gradient-11);}</style><linearGradient id="linear-gradient" x1="291.23" y1="174.38" x2="384" y2="174.38" gradientUnits="userSpaceOnUse"><stop offset="0" stop-color="#ffc05a"/><stop offset="1" stop-color="wheat"/></linearGradient><linearGradient id="linear-gradient-2" x1="128" y1="174.38" x2="220.75" y2="174.38" xlink:href="#linear-gradient"/><linearGradient id="linear-gradient-3" x1="291.25" y1="337.62" y2="337.62" xlink:href="#linear-gradient"/><linearGradient id="linear-gradient-4" x1="128" y1="337.62" x2="220.77" y2="337.62" xlink:href="#linear-gradient"/><linearGradient id="linear-gradient-5" x1="165.33" y1="206.18" x2="239.76" y2="206.18" xlink:href="#linear-gradient"/><linearGradient id="linear-gradient-6" x1="274.66" y1="309.34" x2="346.67" y2="309.34" xlink:href="#linear-gradient"/><linearGradient id="linear-gradient-7" x1="281.7" y1="197.82" x2="346.67" y2="197.82" xlink:href="#linear-gradient"/><linearGradient id="linear-gradient-8" x1="165.33" y1="226.9" x2="271.78" y2="226.9" xlink:href="#linear-gradient"/><linearGradient id="linear-gradient-9" x1="280" y1="258.17" x2="349.34" y2="258.17" xlink:href="#linear-gradient"/><linearGradient id="linear-gradient-10" x1="245.57" y1="310.01" x2="266.91" y2="310.01" xlink:href="#linear-gradient"/><linearGradient id="linear-gradient-11" x1="165.33" y1="316.61" x2="237.34" y2="316.61" xlink:href="#linear-gradient"/></defs><title>qr</title><g id="bold"><path class="cls-1" d="M373.33,220.75a10.67,10.67,0,0,1-10.67-10.67V159.52a10.21,10.21,0,0,0-10.2-10.19H301.9a10.67,10.67,0,1,1,0-21.33h50.56A31.55,31.55,0,0,1,384,159.52v50.56A10.66,10.66,0,0,1,373.33,220.75Z" transform="translate(-128 -128)"/><path class="cls-2" d="M138.67,220.75A10.66,10.66,0,0,1,128,210.1V159.52A31.55,31.55,0,0,1,159.52,128h50.56a10.67,10.67,0,0,1,0,21.34H159.52a10.21,10.21,0,0,0-10.19,10.2V210.1a10.65,10.65,0,0,1-10.66,10.65Z" transform="translate(-128 -128)"/><path class="cls-3" d="M352.48,384H301.92a10.67,10.67,0,0,1,0-21.34h50.56a10.21,10.21,0,0,0,10.19-10.2V301.9a10.67,10.67,0,1,1,21.33,0v50.56A31.55,31.55,0,0,1,352.48,384Z" transform="translate(-128 -128)"/><path class="cls-4" d="M210.08,384H159.52A31.55,31.55,0,0,1,128,352.48V301.92a10.67,10.67,0,0,1,21.34,0v50.56a10.21,10.21,0,0,0,10.2,10.19H210.1a10.67,10.67,0,1,1,0,21.33Z" transform="translate(-128 -128)"/><path class="cls-5" d="M229.09,247H176a10.67,10.67,0,0,1-10.67-10.67V176A10.67,10.67,0,0,1,176,165.33h53.09A10.67,10.67,0,0,1,239.76,176v60.37A10.65,10.65,0,0,1,229.09,247ZM186.67,225.7h31.76v-39H186.67Z" transform="translate(-128 -128)"/><path class="cls-6" d="M336,346.67H285.33A10.67,10.67,0,0,1,274.66,336V302.06a10.67,10.67,0,1,1,21.34,0v23.27h29.33v-32H312.72a10.67,10.67,0,1,1,0-21.33H336a10.67,10.67,0,0,1,10.67,10.67V336A10.67,10.67,0,0,1,336,346.67Z" transform="translate(-128 -128)"/><path class="cls-7" d="M336,230.3H292.37a10.67,10.67,0,0,1-10.67-10.67V176a10.66,10.66,0,0,1,10.67-10.67H336A10.67,10.67,0,0,1,346.67,176v43.63A10.67,10.67,0,0,1,336,230.3ZM303,209h22.31V186.67H303Z" transform="translate(-128 -128)"/><path class="cls-8" d="M261.09,278.78H176a10.67,10.67,0,0,1,0-21.34h74.43V185.68a10.68,10.68,0,0,1,21.35,0V268.1A10.69,10.69,0,0,1,261.09,278.78Z" transform="translate(-128 -128)"/><path class="cls-9" d="M290.67,276.11A10.67,10.67,0,0,1,280,265.44V250.9a10.68,10.68,0,0,1,10.67-10.68h48a10.68,10.68,0,0,1,0,21.35H301.34v3.87A10.67,10.67,0,0,1,290.67,276.11Z" transform="translate(-128 -128)"/><path class="cls-10" d="M256.24,332.8a10.67,10.67,0,0,1-10.67-10.67V297.89a10.67,10.67,0,0,1,21.34,0v24.24A10.67,10.67,0,0,1,256.24,332.8Z" transform="translate(-128 -128)"/><path class="cls-11" d="M226.67,346.67H176A10.67,10.67,0,0,1,165.33,336V297.22A10.68,10.68,0,0,1,176,286.54h50.67a10.68,10.68,0,0,1,10.67,10.68V336A10.68,10.68,0,0,1,226.67,346.67Zm-40-21.34H216V307.87H186.67Z" transform="translate(-128 -128)"/></g></svg>