<svg id="Layer_1" data-name="Layer 1" xmlns="http://www.w3.org/2000/svg" xmlns:xlink="http://www.w3.org/1999/xlink" viewBox="0 0 60 59.84"><defs><style>.cls-1{fill:none;}.cls-2{clip-path:url(#clip-path);}.cls-3{fill:url(#linear-gradient);}</style><clipPath id="clip-path" transform="translate(0 -0.08)"><rect class="cls-1" width="60" height="60"/></clipPath><linearGradient id="linear-gradient" y1="30" x2="60" y2="30" gradientUnits="userSpaceOnUse"><stop offset="0" stop-color="#ffc05a"/><stop offset="1" stop-color="wheat"/></linearGradient></defs><title>share</title><g class="cls-2"><path class="cls-3" d="M10.93,40.71a10.88,10.88,0,0,1-5-1.23A10.92,10.92,0,0,1,8.07,19.24a10.95,10.95,0,0,1,9.85,2.14,1,1,0,0,1,.35.68,1,1,0,0,1-.22.73,1,1,0,0,1-.68.36,1,1,0,0,1-.73-.23,9,9,0,0,0-4.57-2A8.92,8.92,0,0,0,7.14,37.86a8.88,8.88,0,0,0,9.5-1.22,1,1,0,0,1,1.4.13,1,1,0,0,1-.12,1.41,11,11,0,0,1-7,2.53ZM60,49a10.93,10.93,0,0,0-20.21-5.76L21.06,33.87a11,11,0,0,0,.79-4.09,10.79,10.79,0,0,0-.69-3.85l18.55-9.28A11,11,0,1,0,38.15,11a1,1,0,0,0,.29.7,1,1,0,0,0,.71.3,1,1,0,0,0,1-1A8.91,8.91,0,1,1,41,14.88a1.18,1.18,0,0,0-.24-.31,1.05,1.05,0,0,0-.34-.2,1,1,0,0,0-.39,0,1.26,1.26,0,0,0-.38.1L19.42,24.56h0a1.07,1.07,0,0,0-.5.58,1,1,0,0,0-.05.39,1,1,0,0,0,.11.38l0,0a9,9,0,0,1-.08,7.84l-.06.09a1,1,0,0,0-.05.76,1,1,0,0,0,.49.58h0L39.75,45.44l.08,0a1.08,1.08,0,0,0,.75,0,1,1,0,0,0,.53-.52.17.17,0,0,0,0-.05,9,9,0,1,1-1,4.08,1,1,0,0,0-1-1,1,1,0,0,0-.71.29,1,1,0,0,0-.29.71A10.93,10.93,0,1,0,60,49Z" transform="translate(0 -0.08)"/></g></svg>